<svg xmlns="http://www.w3.org/2000/svg" width="39.718" height="24.878" xmlns:v="https://vecta.io/nano"><path d="M28.913 10.349a2.85 2.85 0 0 0-.07-.51l-.46-1.41c-.007-.048-.032-.091-.07-.12-.022-.023-.039-.05-.05-.08l-.07-.16-.17.05c-.026.012-.057.008-.08-.01a.64.64 0 0 0-.14-.08c-.132-.066-.222-.194-.24-.34.002-.034.009-.068.02-.1s.03-.05.04-.08c.01-.017.007-.039-.007-.053s-.036-.017-.053-.007c-.07.02-.11.02-.14-.06 0-.01-.03-.02-.05-.03l-.31-.12c-.08-.03-.1-.03-.14.05l-.31.48c-.02.04-.04.07 0 .1-.02.05-.05.08-.11.05q-2.34 3.585-4.66 7.17c.019.012.03.033.03.055s-.011.043-.03.055a.17.17 0 0 1-.07-.01l-1.8 2.79.39.01a.06.06 0 0 0 .04-.01c.03-.02.05-.04.08 0 .01.01.05.01.07.01h.67a.97.97 0 0 1 .17.01c.073.01.138.05.18.11.014.019.036.031.06.03l.38.03c.04 0 .09.01.12-.04.01-.02.05-.02.05.01a.1.1 0 0 0 .08.07l-.05.43c0 .01 0 .03-.01.03-.07.06-.13.14-.22.16h-.01a.2.2 0 0 0-.04-.08c-.02-.02-.05-.01-.08-.01l-.27-.03a.5.5 0 0 0-.32.04c-.045.029-.105.021-.14-.02a.35.35 0 0 0-.24-.08c-.11 0-.21-.02-.32-.03-.09-.01-.09-.01-.14.06-.04-.01-.08-.02-.08-.07s-.04-.04-.07-.04h-.43c-.087.002-.174.008-.26.02-.01.04-.02.08-.07.09-.02.01-.03.05-.04.07a2.36 2.36 0 0 1-.44.79c-.323.391-.786.639-1.29.69-.2.018-.402.012-.6-.02a.14.14 0 0 0-.14.02c-.026.019-.06.022-.09.01-.068-.016-.139-.005-.2.03-.032.015-.068.015-.1 0a.18.18 0 0 0-.16.02c-.036.031-.086.039-.13.02a.14.14 0 0 0-.14.02.12.12 0 0 1-.14.01c-.044-.019-.094-.011-.13.02-.044.031-.1.038-.15.02s-.108-.004-.15.03a.16.16 0 0 1-.15.01c-.044-.018-.094-.011-.13.02s-.086.038-.13.02a.15.15 0 0 0-.13.01c-.044.033-.102.037-.15.01-.044-.018-.094-.011-.13.02-.042.026-.093.033-.14.02a.22.22 0 0 0-.27.17c-.01.051-.039.097-.08.13s-.068.078-.07.13c-.003.059-.038.112-.09.14-.046.021-.074.069-.07.12a.15.15 0 0 1-.1.14c-.042.016-.069.056-.07.1-.011.067-.051.126-.11.16-.037.023-.066.058-.08.1-.009.063-.051.117-.11.14-.031.019-.055.047-.07.08-.011.059-.048.11-.1.14-.05.04-.09.06-.11.13-.01.04-.07.08-.11.11-.049.027-.087.069-.11.12a.2.2 0 0 1-.12.12.15.15 0 0 0-.1.09c-.026.059-.078.103-.14.12a.13.13 0 0 0-.1.09c-.031.049-.076.088-.13.11a.15.15 0 0 0-.1.09c-.03.052-.081.089-.14.1-.046.011-.085.04-.11.08-.036.061-.099.102-.17.11-.03 0-.05.03-.07.05a.29.29 0 0 1-.18.12c-.033.011-.064.028-.09.05a.34.34 0 0 1-.18.11c-.033.011-.064.028-.09.05a.4.4 0 0 1-.18.1c-.041.01-.079.031-.11.06a.4.4 0 0 1-.13.07.37.37 0 0 0-.14.07c-.051.035-.109.059-.17.07a.37.37 0 0 0-.11.05.85.85 0 0 1-.17.06c-.03.01-.07.01-.09.03a.43.43 0 0 1-.22.09c-.041.009-.082.022-.12.04a.48.48 0 0 1-.17.05c-.043.003-.084.016-.12.04a.47.47 0 0 1-.16.04.42.42 0 0 0-.15.04c-.041.017-.086.024-.13.02-.06 0-.11-.01-.16.04-.01.01-.04.01-.06.01l-.82.04h-1.49c-.06 0-.13-.01-.19-.01a.15.15 0 0 1-.11-.04c-.021-.013-.046-.017-.07-.01-.087.014-.175-.004-.25-.05-.017.014-.038.021-.06.02l-.17-.02c-.05-.01-.08-.05-.12-.06s-.09.01-.13-.01a.22.22 0 0 1-.15-.06c0-.01-.02-.01-.04-.01a.29.29 0 0 1-.25-.09c-.015-.009-.033-.013-.05-.01-.085.011-.17-.019-.23-.08-.018-.013-.038-.02-.06-.02-.085 0-.168-.032-.23-.09-.02-.01-.03-.02-.05-.03l-.19-.06c-.02-.01-.03-.03-.05-.04s-.03-.03-.05-.03c-.093-.004-.179-.052-.23-.13-.014-.013-.031-.02-.05-.02-.084-.007-.161-.051-.21-.12a.1.1 0 0 0-.05-.04c-.09-.014-.169-.065-.22-.14-.013-.016-.03-.026-.05-.03-.087-.008-.163-.061-.2-.14a.1.1 0 0 0-.05-.04c-.086-.016-.16-.072-.2-.15-.009-.021-.028-.036-.05-.04-.084-.016-.155-.072-.19-.15-.01-.02-.02-.04-.04-.04-.09-.028-.163-.094-.2-.18-.01-.01-.02-.03-.04-.03a.27.27 0 0 1-.18-.18c-.01-.01-.02-.03-.03-.03-.084-.029-.151-.096-.18-.18-.008-.018-.022-.032-.04-.04-.086-.037-.152-.11-.18-.2 0-.02-.02-.03-.04-.04-.08-.032-.137-.104-.15-.19-.004-.022-.019-.041-.04-.05-.078-.035-.134-.106-.15-.19-.004-.02-.014-.037-.03-.05-.073-.037-.121-.109-.13-.19-.004-.03-.023-.056-.05-.07-.066-.042-.107-.112-.11-.19-.003-.031-.017-.059-.04-.08-.066-.049-.113-.12-.13-.2 0-.02-.02-.04-.03-.06-.03-.05-.07-.09-.1-.14l-.01-.01c.006-.081-.027-.159-.09-.21-.033-.039-.047-.09-.04-.14 0-.02-.01-.06-.03-.07-.05-.03-.06-.09-.09-.14-.01-.019-.01-.041 0-.06.009-.041-.007-.084-.04-.11a.3.3 0 0 1-.08-.2c0-.02 0-.05-.01-.06-.033-.045-.057-.096-.07-.15-.001-.008-.005-.015-.01-.02.02-.09-.03-.15-.07-.22-.027-.045-.035-.099-.02-.15.01-.02-.01-.05-.02-.07a.61.61 0 0 1-.05-.12c0-.01 0-.01-.01-.02a.37.37 0 0 0-.01-.15.67.67 0 0 1-.06-.15c-.001-.008-.005-.015-.01-.02.04-.11-.04-.2-.04-.3 0-.01-.01-.02-.01-.03.04-.08-.01-.15-.02-.22-.015-.042-.015-.088 0-.13.01-.02 0-.04 0-.06a1.55 1.55 0 0 0-.04-.21v-.01c.04-.08-.01-.15-.01-.23a.23.23 0 0 1 .02-.14c.01-.019.01-.041 0-.06-.03-.084-.03-.176 0-.26.007-.024.003-.049-.01-.07-.017-.07-.013-.142.01-.21a.22.22 0 0 0 .01-.08c-.023-.076-.016-.159.02-.23a.17.17 0 0 0 .01-.07c-.021-.078-.01-.16.03-.23.01-.02.01-.05.02-.07v-.12c-.001-.036.01-.071.03-.1s.024-.059.02-.09c-.018-.072-.003-.149.04-.21.01-.02.01-.05.02-.07.01-.05.01-.11.02-.16 0-.02.03-.04.04-.06.014-.028.025-.059.03-.09.01-.04 0-.09.01-.13a.1.1 0 0 1 .04-.07c.029-.029.044-.069.04-.11a.27.27 0 0 1 .07-.21c.019-.023.029-.051.03-.08-.006-.073.024-.143.08-.19.029-.025.044-.062.04-.1-.007-.075.028-.148.09-.19.03-.025.048-.061.05-.1-.006-.067.025-.132.08-.17.038-.023.061-.065.06-.11a.18.18 0 0 1 .09-.16.11.11 0 0 0 .06-.1.18.18 0 0 1 .09-.16c.038-.025.063-.065.07-.11.004-.07.046-.131.11-.16a.1.1 0 0 0 .06-.09c0-.065.04-.124.1-.15.036-.017.062-.051.07-.09-.003-.084.044-.163.12-.2.021-.009.036-.028.04-.05.02-.1.1-.14.17-.2.02-.017.036-.038.05-.06.03-.066.078-.122.14-.16.028-.019.049-.047.06-.08.024-.059.071-.106.13-.13.052-.017.093-.058.11-.11.02-.058.07-.1.13-.11a.13.13 0 0 0 .1-.09.15.15 0 0 1 .13-.11c.056-.012.104-.049.13-.1a.23.23 0 0 1 .13-.11c.028-.008.053-.026.07-.05a.25.25 0 0 1 .17-.13c.042-.007.079-.033.1-.07.026-.064.092-.101.16-.09.044-.001.084-.028.1-.07.024-.055.08-.091.14-.09a.2.2 0 0 0 .11-.06c.044-.061.115-.098.19-.1.038.005.074-.015.09-.05.046-.06.115-.096.19-.1a.69.69 0 0 0 .08-.03c.057-.054.132-.086.21-.09.027.003.053-.009.07-.03a.33.33 0 0 1 .2-.09c.028-.001.055-.007.08-.02a.3.3 0 0 1 .22-.08c.03.001.058-.01.08-.03a.3.3 0 0 1 .2-.06.14.14 0 0 0 .09-.03.3.3 0 0 1 .22-.06c.031-.002.061-.009.09-.02.061-.043.137-.057.21-.04.031-.002.061-.009.09-.02a.32.32 0 0 1 .21-.04.45.45 0 0 0 .11-.01c.065-.031.14-.038.21-.02.034.007.068.003.1-.01.062-.032.133-.039.2-.02a.17.17 0 0 0 .1 0 .4.4 0 0 1 .24-.02c.026.005.054.005.08 0 .075-.025.155-.025.23 0 .022.01.048.01.07 0a.36.36 0 0 1 .23.01.17.17 0 0 0 .07.01c.076-.017.156-.013.23.01.029.008.06.012.09.01a.51.51 0 0 1 .21.03c.021.014.046.017.07.01a1.09 1.09 0 0 1 .26.03 1.37 1.37 0 0 1 .35.08c.04.02.1-.01.15.01.09.034.184.057.28.07a.61.61 0 0 1 .12.05c.018.011.039.018.06.02a.44.44 0 0 1 .25.08c.018.011.039.018.06.02a.36.36 0 0 1 .22.09c.022.02.05.031.08.03.076.002.148.035.2.09.022.02.05.031.08.03.073.003.142.035.19.09.025.023.056.037.09.04.074.006.143.042.19.1.026.022.057.039.09.05.065.009.126.041.17.09.031.027.064.05.1.07a.45.45 0 0 1 .17.11c.017.024.042.042.07.05.076.028.144.072.2.13.026.022.057.039.09.05a.3.3 0 0 1 .15.12c.01.03.05.05.08.06.071.026.131.075.17.14.01.02.04.05.06.05.079.027.144.085.18.16.01.01.01.03.02.03.1.04.15.14.23.21h.01a.22.22 0 0 1 .05-.03l.52-.41c.02-.02.04-.05.06-.07s.03-.04.05-.06c.093-.085.194-.162.3-.23a9.46 9.46 0 0 0 .78-.6c.1-.08.09-.07.06-.2l-.2-.74c-.011-.029-.018-.059-.02-.09-.14.02-.26.11-.39.05-.02-.05-.03-.1-.05-.15-.03-.09.03-.14.08-.2a.14.14 0 0 1 .19-.02c.04.02.07.06.12.01l-.11-.37c-.01-.04-.04-.04-.07-.03l-.34.1-.01.29v.07c0 .02-.01.05-.03.05s-.04-.02-.04-.04-.011-.035-.02-.05a1.11 1.11 0 0 0-.07.16h-.14c-.014.001-.027-.004-.036-.014s-.015-.023-.014-.036v-.03l.06-.92c.07-.04.13-.01.2-.02a.23.23 0 0 1 .03.21.54.54 0 0 0 .39-.08c0-.02-.01-.04-.01-.06l-.17-.58c-.016-.058-.023-.119-.02-.18 0-.04-.01-.09-.01-.13v-.02a1.61 1.61 0 0 1-.17-.43.06.06 0 0 1-.01-.04c-.02-.01-.05-.01-.07-.02a.38.38 0 0 1-.1-.03 1.61 1.61 0 0 1-.3-.21l-.13-.15c-.039-.048-.091-.082-.15-.1-.14-.04-.285-.06-.43-.06l-.52.01c-.078.006-.156-.015-.22-.06-.034-.03-.076-.05-.12-.06-.16-.03-.19-.11-.22-.24a.74.74 0 0 1 .02-.33.65.65 0 0 1 .55-.45c.243-.023.487-.027.73-.01l.84.06.47.05a5.79 5.79 0 0 0 1.02 0l.75-.08c.158-.031.319-.048.48-.05a4.81 4.81 0 0 1 .53.07c.236.044.426.219.49.45.04.13.01.18-.13.2a.49.49 0 0 1-.17.01c-.38 0-.76.04-1.14.07-.047-.001-.092.021-.12.06l-.5.52a.59.59 0 0 1-.32.17c-.04.01-.09 0-.1.06-.005.005-.012.009-.02.01-.07.03-.07.03-.07.1a.3.3 0 0 1-.29.32c-.02 0-.04.01-.07.01.027.038.05.078.07.12l.06.12.19.68h.07l.08.28c-.02.02-.04.03-.06.05l.13.43.37-.06.03.14c0 .02.01.05.01.07.01.04 0 .06-.04.07l-.21.05c-.02 0-.03.01-.05.02 0 .02.01.04.01.06l.16.53a.2.2 0 0 0 .04.08c.03.04.05.04.09.02l2.71-1.37 3.95-1.95c.41-.2.83-.36 1.25-.52l2.84-1c.12-.04.13-.05.14-.17l.02-.28c.002-.021-.002-.041-.01-.06-.08-.1-.08-.1-.03-.16l.01-.01c0-.02-.01-.04-.01-.07 0-.07.02-.13.02-.2.007-.047-.008-.095-.04-.13-.01-.01-.01-.04-.02-.05l-.15-.41c-.02 0-.03.01-.05.02-.009-.041-.022-.082-.04-.12h-.08c-.05-.001-.096-.027-.122-.07s-.029-.095-.008-.14c.018-.036.046-.067.08-.09.05-.04.06-.06.04-.12s-.05-.09-.1-.09c-.026.005-.054.005-.08 0-.058-.002-.108-.043-.12-.1-.021-.042-.022-.091-.002-.134s.057-.074.102-.086c.02-.01.04-.01.06-.03s.07-.04.07-.09l.06-.35c-.116-.061-.164-.201-.11-.32-.01-.01-.02-.02-.03-.02-.03-.02-.02-.05-.01-.08.005-.014.015-.025.028-.03s.028-.006.042 0l.4.08.23.07c.03.01.06.03.09.04.03-.03.01-.04-.02-.05l-.32-.12c-.04-.01-.09-.02-.09-.07s.026-.097.07-.12l.26-.16.2-.12a.49.49 0 0 0-.07-.03c-.082-.031-.165-.058-.25-.08-.05-.01-.07-.05-.08-.1-.014-.044.002-.093.04-.12l.57-.35a.3.3 0 0 1 .29 0c.04.02.08.03.12.05.05.022.106.029.16.02s.109-.008.16.01c.12.05.24.04.36.08.05.02.11.03.16.05a.3.3 0 0 1 .08.04l.05-.05c0-.04-.05-.06-.1-.09a1.74 1.74 0 0 1-.19-.1c-.09-.06-.11-.11-.06-.21.036-.072.076-.142.12-.21s.08-.08.14-.02a.5.5 0 0 1 .08.12 1.25 1.25 0 0 0 .28.37c.07.06.11.13.18.19.071.044.145.084.22.12a.22.22 0 0 1 .05.03c.039.031.055.083.04.13l-.06.21c-.014.031-.006.068.02.09.035.049.084.088.14.11.04 0 .07.04.08.1s.02.08.09.09c.03.01.06.01.08.02.256.073.426.314.41.58v.07c-.005.043.014.085.05.11l.53.32a.4.4 0 0 1 .24.37c-.005.148-.025.296-.06.44-.033.192-.057.386-.07.58-.01.2 0 .41 0 .61.004.035-.003.07-.02.1a.2.2 0 0 0-.02.11l-.04.29c-.011.076-.018.153-.02.23a1.78 1.78 0 0 1-.6 1.4c-.029.027-.056.058-.08.09-.07.089-.159.16-.26.21-.03.02-.08.02-.09.07l-.01.01c-.065.031-.132.058-.2.08l-.35.09a.21.21 0 0 0 .04.2c.02.02.02.04.03.07l.09.31c.01.022.01.048 0 .07-.014.057-.007.118.02.17l.59 1.74c.01.03.01.06.05.08.002-.017.006-.034.01-.05l-.1-.49c-.03-.13-.07-.25-.11-.38l-.03-.06c-.025-.036-.025-.084 0-.12.02-.04.06-.04.1-.04s.05.01.07.01a.78.78 0 0 0 .21.04c.06.004.111.044.13.1l.31.8c.039.009.081-.002.11-.03.044-.039.105-.051.16-.03.049.016.102.004.14-.03.051-.039.119-.051.18-.03.044.019.094.011.13-.02.042-.034.098-.045.15-.03a.18.18 0 0 0 .16-.02.2.2 0 0 1 .17-.01c.041.02.089.02.13 0 .06-.03.13-.03.19 0a.17.17 0 0 0 .1 0c.067-.03.143-.03.21 0a.2.2 0 0 0 .11 0c.062-.022.131-.018.19.01.039.015.081.015.12 0a.25.25 0 0 1 .19.01c.037.018.08.022.12.01.065-.016.133-.005.19.03.037.018.08.022.12.01.066-.017.136-.002.19.04.038.027.086.034.13.02.066-.017.136-.002.19.04.029.021.065.028.1.02.063-.007.126.007.18.04.035.025.078.036.12.03.072-.011.146.011.2.06.03.019.065.029.1.03a.33.33 0 0 1 .19.06.3.3 0 0 0 .13.05.67.67 0 0 1 .18.07c.028.023.063.037.1.04.066.002.13.027.18.07.033.031.075.048.12.05.06-.001.117.029.15.08.025.036.066.059.11.06a.31.31 0 0 1 .18.09c.02.02.05.05.08.05.079.007.151.047.2.11.02.026.048.043.08.05.074.008.138.053.17.12a.1.1 0 0 0 .09.06c.067.011.126.051.16.11.02.02.04.05.07.06.084.016.155.072.19.15.015.024.041.039.07.04.08.014.146.072.17.15.014.027.04.046.07.05.077.02.14.076.17.15.016.028.04.049.07.06.068.028.122.082.15.15.012.027.033.048.06.06.083.036.148.105.18.19a.1.1 0 0 0 .04.05c.08.035.139.105.16.19 0 .02.03.04.04.05.073.028.127.093.14.17.011.024.028.045.05.06.076.035.129.107.14.19.01.04.02.07.06.08.07.02.09.08.11.14.014.055.046.104.09.14a.36.36 0 0 1 .08.15c.01.038.031.073.06.1.041.033.07.079.08.13s.038.104.08.14a.2.2 0 0 1 .07.16c-.005.043.014.085.05.11a.2.2 0 0 1 .08.18c.001.047.023.091.06.12.049.043.075.105.07.17-.005.049.014.097.05.13.044.041.066.1.06.16a.2.2 0 0 0 .05.15c.021.03.035.064.04.1a.3.3 0 0 0 .05.2c.035.041.047.098.03.15-.016.046-.004.096.03.13.042.042.057.103.04.16-.022.06-.007.127.04.17.018.03.022.067.01.1-.022.066-.007.139.04.19.029.041.033.095.01.14-.021.065-.01.135.03.19.028.038.032.088.01.13-.027.054-.023.119.01.17.03.04.01.09 0 .13-.008.064-.001.129.02.19.015.049.015.101 0 .15a.18.18 0 0 0 0 .16.17.17 0 0 1 0 .14c-.033.051-.037.116-.01.17s.023.125-.01.18c-.021.029-.028.065-.02.1a.28.28 0 0 1-.02.22c-.011.025-.018.052-.02.08a.43.43 0 0 1-.04.25.11.11 0 0 0 0 .08c.02.074.001.153-.05.21-.011.022-.018.046-.02.07a.26.26 0 0 1-.05.24c-.013.021-.017.046-.01.07.03.09-.02.15-.05.22-.01.02-.04.05-.03.07.02.09-.03.15-.07.23a.41.41 0 0 0-.03.08c.003.073-.022.145-.07.2a.15.15 0 0 0-.04.11c.008.07-.022.139-.08.18-.03.025-.048.061-.05.1-.005.073-.037.141-.09.19-.032.018-.049.054-.04.09.007.075-.028.148-.09.19-.036.025-.055.067-.05.11a.18.18 0 0 1-.09.16c-.038.023-.061.065-.06.11.001.063-.034.121-.09.15-.05.018-.083.067-.08.12.003.058-.028.113-.08.14-.046.032-.081.077-.1.13-.029.058-.07.109-.12.15a.55.55 0 0 0-.07.09c-.04.056-.084.109-.13.16-.02.02-.05.04-.06.07-.017.079-.074.143-.15.17-.02.01-.05.04-.05.06-.023.07-.074.128-.14.16-.029.012-.054.033-.07.06a.35.35 0 0 1-.17.17c-.031.008-.057.03-.07.06-.03.07-.09.1-.14.14-.028.018-.052.042-.07.07-.028.052-.075.091-.13.11-.063.016-.115.06-.14.12-.034.057-.094.094-.16.1-.041.005-.075.032-.09.07a.2.2 0 0 1-.15.1c-.041.004-.078.026-.1.06-.03.08-.1.09-.16.11-.049.017-.093.044-.13.08-.032.047-.084.076-.14.08-.045-.003-.088.02-.11.06a.2.2 0 0 1-.15.09c-.051.005-.098.03-.13.07a.18.18 0 0 1-.15.07c-.046-.005-.091.014-.12.05-.043.055-.11.086-.18.08a.15.15 0 0 0-.11.04.3.3 0 0 1-.18.08c-.024.002-.048.009-.07.02a.43.43 0 0 1-.27.08c-.021.002-.042.009-.06.02a.31.31 0 0 1-.23.06c-.032.001-.064.011-.09.03a.3.3 0 0 1-.21.05c-.031-.003-.063.004-.09.02-.071.037-.15.054-.23.05-.03 0-.05.01-.08.01-.05.01-.1.03-.15.04-.64.05-1.28.04-1.92.03-.14 0-.28-.01-.42-.01-.073.003-.146-.015-.21-.05-.025-.013-.053-.017-.08-.01-.065.016-.133.005-.19-.03a.3.3 0 0 0-.1-.02.35.35 0 0 1-.2-.05.1.1 0 0 0-.09-.02.42.42 0 0 1-.24-.07.14.14 0 0 0-.09-.03.36.36 0 0 1-.2-.06c-.039-.024-.084-.037-.13-.04-.071.002-.139-.032-.18-.09a.15.15 0 0 0-.11-.04.2.2 0 0 1-.08-.01c-.08-.08-.2-.08-.29-.13-.01 0-.02 0-.02-.01-.06-.09-.17-.08-.25-.14-.02-.02-.05-.03-.06-.05-.031-.042-.078-.068-.13-.07a.2.2 0 0 1-.15-.09c-.021-.029-.054-.048-.09-.05a.23.23 0 0 1-.18-.12c-.02-.02-.05-.05-.07-.05-.073-.022-.136-.068-.18-.13a.24.24 0 0 0-.08-.06c-.066-.019-.124-.061-.16-.12a.27.27 0 0 0-.08-.07c-.065-.026-.121-.071-.16-.13a.27.27 0 0 0-.08-.07.26.26 0 0 1-.15-.14c-.016-.036-.044-.064-.08-.08-.064-.021-.115-.068-.14-.13a.3.3 0 0 0-.08-.08.26.26 0 0 1-.14-.15c-.012-.029-.033-.054-.06-.07a.31.31 0 0 1-.14-.16.24.24 0 0 0-.06-.08.26.26 0 0 1-.14-.18c0-.02-.03-.05-.05-.07-.032-.024-.062-.051-.09-.08a.25.25 0 0 1-.04-.07c-.005-.054-.04-.1-.09-.12s-.082-.067-.09-.12c.001-.045-.022-.087-.06-.11-.059-.038-.1-.1-.11-.17-.01-.041-.031-.079-.06-.11-.05-.05-.11-.1-.1-.19-.006-.035-.024-.066-.05-.09a.24.24 0 0 1-.09-.17c-.007-.039-.021-.076-.04-.11-.044-.056-.075-.121-.09-.19-.007-.032-.021-.063-.04-.09a.5.5 0 0 1-.09-.21c-.006-.038-.024-.072-.05-.1a.21.21 0 0 1-.06-.17c.003-.049-.015-.096-.05-.13a.21.21 0 0 1-.04-.11.33.33 0 0 0-.06-.19c-.03-.04-.041-.091-.03-.14s-.003-.103-.04-.14c-.034-.046-.048-.103-.04-.16a.4.4 0 0 0-.03-.15.3.3 0 0 1-.02-.16.39.39 0 0 0-.02-.15.47.47 0 0 1-.02-.17c.002-.03-.002-.061-.01-.09-.041-.07-.048-.154-.02-.23.007-.03.003-.062-.01-.09-.038-.068-.042-.149-.01-.22a.17.17 0 0 0 0-.1c-.033-.072-.037-.155-.01-.23.012-.033.008-.07-.01-.1-.03-.06-.03-.13 0-.19.013-.032.017-.066.01-.1-.023-.083-.016-.172.02-.25a.17.17 0 0 0 0-.1c-.025-.059-.017-.127.02-.18a.14.14 0 0 0 .02-.14c-.03-.059-.022-.129.02-.18.031-.036.039-.086.02-.13-.021-.058-.009-.123.03-.17.029-.029.041-.071.03-.11-.02-.071-.001-.147.05-.2.029-.029.041-.071.03-.11-.019-.071 0-.146.05-.2.019-.03.029-.065.03-.1a.25.25 0 0 1 .07-.2c.025-.031.036-.071.03-.11-.013-.063.01-.129.06-.17.032-.027.047-.069.04-.11a.21.21 0 0 1 .07-.18c.03-.025.048-.061.05-.1a.25.25 0 0 1 .08-.18c.024-.029.042-.063.05-.1a.36.36 0 0 1 .11-.21c.03-.03.05-.05.04-.09.005-.051.03-.098.07-.13a.2.2 0 0 0 .08-.15c.004-.062.042-.117.1-.14.04-.023.066-.064.07-.11.004-.07.046-.131.11-.16.04-.02.06-.04.06-.08.008-.074.053-.138.12-.17.033-.019.055-.052.06-.09a.2.2 0 0 1 .12-.15c.036-.02.065-.052.08-.09.023-.065.069-.118.13-.15a.22.22 0 0 0 .09-.1.5.5 0 0 1 .1-.11c.03-.03.07-.06.1-.09s.07-.09.11-.13.08-.03.11-.06.03-.07.06-.1a.2.2 0 0 1 .12-.08c.031-.008.057-.03.07-.06.028-.068.088-.117.16-.13.042-.009.076-.039.09-.08.021-.053.065-.094.12-.11s.104-.049.13-.1c.02-.04.08-.06.12-.08.05-.015.092-.047.12-.09a.2.2 0 0 1 .16-.1c.045-.007.085-.032.11-.07.035-.056.094-.093.16-.1.048-.007.091-.032.12-.07.037-.051.097-.081.16-.08.049.008.097-.016.12-.06.037-.063.107-.099.18-.09.026.019.059.026.09.02zm2.57 7.68c.02-.02.04-.03.06-.05a4.16 4.16 0 0 0-.59.13c.04.04.07.06.1.09l.35-.15a.31.31 0 0 1 .08-.02c-.026.015-.052.029-.08.04l-.28.12-.04.04a1.06 1.06 0 0 0 .43-.08c.01-.04.01-.08.02-.13a.09.09 0 0 1-.05.01zm2.44-.88c.011-.011.025-.017.04-.02 0-.01-.01-.01-.01-.02-.06-.01-.12-.01-.18-.02 0 .04-.03.08-.01.11.03-.01.05-.01.08-.02a.7.7 0 0 1-.09.06v.35c.006.067-.025.132-.08.17-.035.03-.057.074-.06.12l.19.15c.02.01.05.02.07.03l.71.11 1.07.16 1.22.18h.05v-1c-.024-.005-.047-.012-.07-.02l-1.15-.15-1.32-.18c-.148-.053-.31-.057-.46-.01zm-16.62-1.02h.11a2.34 2.34 0 0 1 .79.13c.042.022.092.018.13-.01l1.16-.54a.64.64 0 0 0 .26-.23l2.68-4.15 3.05-4.67.06-.1c.02-.03.01-.05 0-.08s-.04-.03-.07-.03l-.26.05-1.59.3a2.57 2.57 0 0 0-.67.19l-6.01 2.78-1.25.56c-.01 0-.01 0-.02.01-.044.023-.072.07-.07.12.002.024.009.048.02.07l1.08 3.65c.03.11.01.09.12.08h.01c.08-.02.1-.01.11.07v.08l-.16.06.34 1.18.14-.02c.06-.01.07 0 .09.05s.01.07.02.11a1.21 1.21 0 0 1-.18.05 1.19 1.19 0 0 1 .11.29zm-3.77-3.86c.011.025.018.052.02.08.01.05.04.07.08.1a.27.27 0 0 1 .13.18c.01.03.02.06.05.07a.29.29 0 0 1 .13.19c0 .021.011.04.03.05.079.058.132.144.15.24 0 .02.02.03.03.05.068.054.111.134.12.22-.001.024.011.046.03.06.066.056.109.134.12.22.004.023.014.043.03.06a.31.31 0 0 1 .09.18c0 .03.01.07.03.08.049.052.081.119.09.19.01.04.01.08.04.1.049.059.078.133.08.21-.005.046.014.091.05.12.029.029.044.069.04.11-.004.047.011.093.04.13.041.054.059.123.05.19-.012.05.003.103.04.14a.49.49 0 0 1 .03.07c.01.05.01.11.02.16-.001.03.01.058.03.08.033.046.047.104.04.16-.002.047.001.094.01.14.029.066.04.139.03.21.002.034.009.068.02.1.01.04.03.08.04.12.01.06.04.08.1.08.024-.002.048-.009.07-.02.042-.028.095-.032.14-.01.04.025.09.025.13 0 .055-.032.12-.039.18-.02.033.012.07.008.1-.01.049-.028.108-.032.16-.01.045.015.095.015.14 0 .055-.018.113-.022.17-.01.034.007.068.003.1-.01a.61.61 0 0 0 .12-.05l-1.02-3.44-.56-1.87-.01-.01h0l-.78.78a.12.12 0 0 1-.02.08c-.07.05-.12.14-.23.14-.02 0-.03.02-.05.03l-.15.13c-.099.062-.193.132-.28.21zm-7.41 3.79a.69.69 0 0 0-.03-.08l-.43-1.12c-.016-.049-.053-.089-.1-.11l-2.44-1.32c-.02-.01-.05-.02-.07-.03a.2.2 0 0 1-.08-.04l-.09-.06a8.02 8.02 0 0 0-.54.8c.062.065.128.126.2.18l.19.15 1.85 1.58a.24.24 0 0 0 .18.07l1.3-.02zm-.64-4.67c.008.097.021.194.04.29l.27 1.46.21 1.23a.2.2 0 0 0 .09.15l.58.49c.02.02.04.03.07.06.007-.015.018-.029.03-.04l.45-.37a.25.25 0 0 0-.01-.08c.035-.021.072-.038.11-.05.07-.02.1-.04.12-.1a2.99 2.99 0 0 1 .1-.32.28.28 0 0 0-.01-.22l-1.13-2.72-.01-.01a3.12 3.12 0 0 0-.91.23zm3.83 4.83c.024.005.047.012.07.02l.75.14c.09.02.17.02.26.04.058.02.122.02.18 0a.17.17 0 0 1 .1 0c.037.018.082.01.11-.02l.32-.21 2.17-1.28c.01 0 .01-.01.02-.02-.117-.302-.261-.593-.43-.87-.048.034-.102.058-.16.07-.06.005-.117.022-.17.05l-1.79.68c-.092.034-.177.085-.25.15l-.18.15c-.114.091-.254.144-.4.15-.044.001-.084.028-.1.07l-.44.82c-.027.011-.049.033-.06.06zm24.1 2.06l-.15.22c-.041.082-.119.138-.21.15-.059.018-.111.052-.15.1-.04.04 0 .08.01.13 0 .02.01.03.01.05a.31.31 0 0 0 .09.18l2.57 2.88c.06.07.14.13.21.2.26-.201.504-.422.73-.66l-.23-.29-1.1-1.22-1.43-1.59a.27.27 0 0 0-.08-.07l-.27-.08zm-2.73.12a.41.41 0 0 0-.24.16l-2.29 2.91-.24.33c.239.236.504.444.79.62l.19-.21 2.4-3.04c.064-.08.099-.178.1-.28l-.21-.07c-.059-.013-.108-.054-.13-.11-.029-.071-.087-.126-.16-.15a.25.25 0 0 1-.21-.16zm-25.39-1.41a.56.56 0 0 1-.08-.05l-.47-.26c-.055-.032-.12-.039-.18-.02l-2.17.43-.82.16c-.01 0-.02.01-.03.01.009.322.042.643.1.96.05 0 .09-.01.13-.01.02 0 .05-.01.07 0a.2.2 0 0 0 .13.02l.73-.03h.84l1.07.01c.031.004.063-.003.09-.02l.37-.33a1.1 1.1 0 0 1 .22-.87zm26.42 2.02c-.03.07-.09.13-.08.23l.04 1.04.06 1.91.05 1.24c.005.005.009.012.01.02h.38c.008-.029.012-.06.01-.09v-.38c0-.01-.01-.01-.01-.02-.029-.086-.022-.18.02-.26.017-.028.047-.045.08-.045s.063.017.08.045c.025.038.036.084.03.13-.01.06 0 .12-.04.17.01.14-.05.29.04.43a2.83 2.83 0 0 0 .41-.03 1.43 1.43 0 0 0 .01-.29l-.03-.97-.06-2.08-.03-.82a.2.2 0 0 0-.01-.08c-.04-.08-.09-.15-.13-.23l-.23.08c-.077.037-.167.033-.24-.01a.3.3 0 0 0-.13-.02 1.81 1.81 0 0 0-.23.03zm-27.95 2.8a2.54 2.54 0 0 0 .24-.2l.8-.72 1.2-1.05c.038-.029.063-.072.07-.12l.09-.71c.01-.06.01-.12.02-.18-.02 0-.02-.01-.03-.01-.06 0-.13.01-.19.01-.1.01-.13-.02-.13-.12 0-.05 0-.09-.05-.12-.01-.01-.02-.03-.03-.04l-.67.14c-.024.011-.045.028-.06.05-.058.091-.121.178-.19.26l-1.56 1.85c-.05.037-.085.09-.1.15 0 .02-.02.03-.03.05s-.05.05-.07.08c.207.249.438.477.69.68zm33.26-8.14l-.29.17-1.16.74-2.05 1.32c-.028.018-.055.038-.08.06-.04.06-.06.12-.1.18l.27.38c.042.042.057.103.04.16v.05a.71.71 0 0 0 .35-.07l3.12-1.88.39-.25c.01-.01.02-.02.03-.02-.137-.301-.311-.583-.52-.84zm-4.05 2.13a.47.47 0 0 0 .19-.25l1.03-3.03.29-.86c-.306-.133-.624-.237-.95-.31l-.11.28-1.14 3.69a.3.3 0 0 0 .01.21c.038.004.075.014.11.03a1.2 1.2 0 0 0 .36.13.36.36 0 0 1 .21.11zm-4.77-9.98c.06 0 .1.01.15.01h.59a1.83 1.83 0 0 0 .76-.17 3.3 3.3 0 0 0 .32-.18.87.87 0 0 0 .26-.28c.047-.119.032-.254-.04-.36l-.01-.01c-.05-.01-.05-.05-.07-.09l-.09-.18a5.62 5.62 0 0 1-.4-.77c-.02-.04-.05-.08-.02-.13.01-.01-.01-.03-.01-.05l-.21-.41c0-.01-.01-.01-.02-.02a.21.21 0 0 0-.04.06 4.59 4.59 0 0 1-.86.9l-.62.49c-.02.02-.04.03-.06.05l.37 1.14zm-1.73 9.05l1.64.87 1.64.87c0-.04.01-.08-.01-.09-.05-.03-.02-.07-.04-.11-.04-.01-.08-.02-.08-.07s.03-.07.04-.12c-.03-.01-.04-.04-.03-.08.02-.06 0-.14.07-.19v-.47c-.028-.015-.054-.032-.08-.05l-2.34-1.27c-.09-.05-.18-.08-.27-.13-.026-.015-.052-.029-.08-.04-.171.284-.325.578-.46.88zm3.99 3.24c-.076-.084-.103-.202-.07-.31-.002-.024-.009-.048-.02-.07-.058-.113-.144-.209-.25-.28-.05.03-.1.05-.15.08a1.06 1.06 0 0 1-.12-.1c.028-.045.058-.088.09-.13-.02-.05-.06-.03-.09-.02l-2.16.45-.4.09v1.04c.02 0 .04-.01.06-.01l1.14-.24 1.85-.39a.31.31 0 0 0 .12-.11zm-2.68-13.53l.33-.25c.305-.232.592-.486.86-.76.14-.153.267-.316.38-.49a1.86 1.86 0 0 1-.16-.57c-.143-.019-.289-.012-.43.02l-.46.11a1.85 1.85 0 0 1-.74.03c-.028.002-.055.009-.08.02l-.29.15-.24.12a.38.38 0 0 0 .03.3c.066.15.113.308.14.47 0 .02.01.03.02.05a.47.47 0 0 0 .19.18c-.007.012-.01.026-.01.04.01 0 .01.01.02.01.08 0 .08.01.09.09 0 .02.02.03.03.05l.15.17c.075.074.133.162.17.26zm-18.79 7.93c-.015.022-.029.045-.04.07l-.43.75-.41.71c-.021.036-.028.079-.02.12l.05.26c.002.053.039.098.09.11.273.117.537.254.79.41.01.01.02.01.04.02s.02-.01.03-.01l.5-.39c.026-.024.044-.055.05-.09.134-.505.295-1.002.48-1.49.01-.022.017-.046.02-.07l-1.15-.4zm24.18 3.09l.01.01c.02-.02.05-.04.07-.06l.65-.59a.41.41 0 0 0 .1-.13l1.3-2.42.11-.25c-.272-.182-.56-.339-.86-.47l-.12.25-1.24 3.58c-.01.02-.01.05-.02.08zm.83 1.11v.02h.06l.86-.03a.78.78 0 0 0 .21-.04l1.38-.56 1.39-.56c.01-.01.02-.01.03-.02-.087-.317-.211-.622-.37-.91-.08.04-.17.07-.25.12l-3.25 1.95c-.01-.01-.03.01-.06.03zm-1.52-5.52c-.018.059-.031.119-.04.18l-.03.08-.18 1.27-.2 1.41c-.015.073-.015.147 0 .22l.19.87c.01.03.01.06.02.08a.2.2 0 0 0 .04-.08l1.02-3.33.16-.55a4.75 4.75 0 0 0-.98-.15zm4.49 2.41c-.204-.257-.425-.501-.66-.73l-.21.15-2.07 1.86a.27.27 0 0 0-.07.08l-.44.83c-.01.01-.01.03-.02.06l.14-.09 3.1-1.99c.025-.017.049-.038.07-.06.03-.02.05-.05.08-.07.03 0 .05-.02.08-.04zm-7.2 3.27c0-.05-.01-.09-.01-.13.003-.059-.034-.112-.09-.13l-2.65-1.4-.58-.27c-.132.303-.235.618-.31.94l.3.12 2.55.81a1.13 1.13 0 0 0 .63.08c.05-.01.11-.01.16-.02zm4.14 1.23c.01.01.02.02.02.03l.66.51a.25.25 0 0 0 .07.04l2.81.94c.082.025.166.045.25.06.13-.296.23-.604.3-.92-.236-.08-.481-.13-.73-.15l-.03.18c-.02.09-.05.1-.13.05-.038-.03-.078-.057-.12-.08-.08-.026-.127-.108-.11-.19-.001-.008-.004-.015-.01-.02-.11-.03-2.87-.46-2.98-.45zm-2.57-6.88h-.03l-.66.12c-.06.01-.05.02-.05.08l.03.35a.32.32 0 0 1-.03.14c-.038.045-.042.11-.01.16l.76 1.98.45 1.17c.01.03.01.06.05.07 0-.01.01-.02.01-.03l.11-.83c.019-.075.022-.153.01-.23l-.35-1.68-.29-1.3zm5.85 9.47l-.2-.18-2.3-1.77c-.034-.03-.076-.05-.12-.06l-.66-.23c-.02-.01-.05-.01-.07-.02.011.025.025.048.04.07l.51.57 1.99 2.21c.06.07.13.13.19.19.238-.234.446-.496.62-.78zm-4.22-1.58v.07l.14.65c.009.038.022.075.04.11l1.57 2.61c.05.08.1.14.16.22a6.54 6.54 0 0 0 .84-.52l-.91-1.05-.91-1.03-.93-1.06zm-2.25 4.18c.319.075.643.125.97.15l.03-.29-.08-2.29-.05-1.48a.28.28 0 0 0-.01-.08c-.02.03-.02.04-.03.05l-.28.54c-.02.029-.031.064-.03.1l-.09.57-.22 1.37a11.07 11.07 0 0 0-.21 1.36zm.61-4.09c-.03.007-.046.028-.06.05l-1.3 1.64-1.04 1.34a1.94 1.94 0 0 0-.15.24 6.32 6.32 0 0 0 .85.45c.05-.09.11-.16.15-.24l1.42-2.73c.018-.038.031-.079.04-.12l.07-.4a1.95 1.95 0 0 1 .02-.23zm1.4.08h-.02v.07l.06 2.27.04 1.48c.007.095.024.189.05.28.326-.036.647-.103.96-.2-.022-.051-.035-.105-.04-.16.004-.096-.013-.191-.05-.28l-.57-2.57c-.032-.186-.104-.364-.21-.52l-.03-.06-.19-.31zm-5.53 1.75a5.56 5.56 0 0 0 .65.72 12.34 12.34 0 0 0 .87-1.07l.85-1.08.84-1.08a.2.2 0 0 0-.08.01l-.53.22a.41.41 0 0 0-.13.08l-1.86 1.62c-.213.183-.417.376-.61.58zm-.3-2.06a3.01 3.01 0 0 0-.67.18c.098.313.222.617.37.91l.26-.09 2.8-1.18c.037-.014.07-.034.1-.06l.48-.41.05-.05-3.02.63v.09c0 .034-.019.065-.05.08l-.19.12q-.06.045-.09-.03a.3.3 0 0 1-.02-.1.24.24 0 0 1-.02-.09zm-18.09.07c0 .02-.01.03-.01.05l-.03.83c-.001.03.01.058.03.08l.68.78c.01.01.02.03.04.03a.9.9 0 0 0 .16.03.14.14 0 0 0 .09-.03c.036-.031.086-.039.13-.02a.2.2 0 0 0 .17 0c.04-.03.08-.02.13-.01.038.022.086.018.12-.01.049-.036.114-.044.17-.02.039.015.081.015.12 0 .059-.028.128-.032.19-.01.04.01.08.02.11-.03a.25.25 0 0 0-.04-.07l-.74-1.25c-.028-.052-.081-.087-.14-.09l-.69-.09c-.1-.01-.13-.03-.12-.13 0-.01-.01-.01-.01-.03-.12.006-.24.003-.36-.01zm20.91-3.6l-.01-.55c.005-.064-.026-.126-.08-.16l-1.81-1.44c-.013-.016-.03-.026-.05-.03-.045-.013-.086-.037-.12-.07-.02-.02-.04-.03-.06-.05a4.14 4.14 0 0 0-.61.8l2.74 1.5zm-27.29 4.84c.17.28.364.544.58.79a1.36 1.36 0 0 1 .12-.12c.02-.02.06-.04.08-.06l.8-.93.94-1.16c.02-.02.03-.05.05-.07-.008-.001-.015-.005-.02-.01l-.95.17a.2.2 0 0 0-.08.04l-1.31 1.15c-.021.009-.036.028-.04.05-.012.035-.037.064-.07.08a.36.36 0 0 1-.1.07zm2.16-3.66c-.02-.02-.03-.03-.04-.03l-.76-.42a.18.18 0 0 0-.1-.02l-1.81.02c-.02 0-.05.01-.07.01a.3.3 0 0 1-.1.02h-.11a5.16 5.16 0 0 0-.06.96c.09-.01.16-.04.23 0h.03l.32-.05 1.98-.38.49-.11zm.05 5.81l.21-.27c.02-.03.04-.05.06-.08l.97-1.18a.31.31 0 0 0 .06-.13l.09-.71c.01-.06.01-.11.02-.19a.81.81 0 0 0-.08.06l-.47.41-.83.73a8.18 8.18 0 0 0-.8.76c-.01.02-.03.03-.04.05a5.5 5.5 0 0 0 .81.55zm23.59-16.5c.007.019.011.04.01.06l.16.43c.033.076.046.158.04.24l-.03.32a.2.2 0 0 0 .01.08c.01.013.014.029.01.045s-.015.029-.03.035l-.1.07c.04.02.06.05.08.04a.48.48 0 0 0 .17-.05.68.68 0 0 1 .27-.13l.36-.09c.04-.01.08-.03.12 0 .01.01.03 0 .05 0s.04-.02.05-.02c.06.03.09-.01.13-.04l.22-.15c.172-.127.304-.3.38-.5l.26-.68c.013-.021.017-.046.01-.07-.01-.078-.026-.155-.05-.23h-.02l-.03.03c-.238.283-.567.474-.93.54a4.63 4.63 0 0 1-1.05.06c-.03 0-.05.01-.09.01zm-22.65 8.79l.01-.01-.26-.69c-.018-.048-.049-.089-.09-.12l-1.46-1.19a1.43 1.43 0 0 0-.15-.11c-.022-.014-.043-.03-.06-.05a6.22 6.22 0 0 0-.66.7c.045.022.086.053.12.09a.4.4 0 0 0 .16.13l.61.34 1.68.89c.035-.007.071.001.1.02zm-3.31-.52c-.154.28-.287.571-.4.87.08.05.15.11.23.15l1.57.85c.04.02.085.031.13.03l.72-.01h.07l-.06-.06-1.83-1.54c-.089-.096-.198-.172-.32-.22-.03-.01-.06-.05-.11-.07zm3.68.2v-.06l-.13-.72-.34-1.92c-.002-.021-.009-.042-.02-.06l-.06-.15c-.011-.018-.018-.039-.02-.06a4.24 4.24 0 0 0-.88.44c.02.04.05.08.07.12.011.018.018.039.02.06.01.03.01.07.02.1l.69 1.72a.36.36 0 0 0 .07.1l.51.39c.024.012.048.025.07.04zm-1.34 3.88c0-.01-.01-.01-.01-.02h-.22l-2.32.01c-.128.007-.255.024-.38.05l-.02.02c.061.314.151.623.27.92a1.67 1.67 0 0 1 .18-.05c.06-.01.12-.01.18-.02.13-.02.25-.06.38-.08l1.2-.22a.3.3 0 0 0 .15-.07l.54-.49c.011-.021.029-.039.05-.05zm1.89-7.17c.022.051.035.105.04.16-.001.055.01.109.03.16l.06.16.94 2.26c.012.023.022.046.03.07.01-.01.02-.02.02-.03l.23-.66c.01-.029.01-.061 0-.09l-.15-.79a9.21 9.21 0 0 1-.18-1.05c0-.05 0-.1-.04-.13-.01-.01-.01-.04-.01-.06.002-.03-.002-.061-.01-.09a5.12 5.12 0 0 0-.96.09zm6.81 3.89q-.15.06-.27.12l-.38.21-1.77 1.05c-.02.02-.05.03-.07.05.047-.002.094.001.14.01a.22.22 0 0 0 .16 0c.041-.02.089-.02.13 0 .047.025.103.025.15 0 .037-.02.083-.02.12 0 .06.04.11.02.17.01.03-.01.08-.02.1 0 .053.03.117.03.17 0a.19.19 0 0 1 .13-.01.57.57 0 0 0 .13.01c.04-.01.09-.03.13-.04l.6-.22.6-.24c.005-.005.009-.012.01-.02a3.65 3.65 0 0 0-.25-.93zm3.37 5.1c-.605-.255-1.054-.782-1.21-1.42a.63.63 0 0 0-.39-.11v.04c.016.069.002.142-.04.2a.32.32 0 0 0-.03.14c.007.056-.007.114-.04.16a.16.16 0 0 0-.04.15.16.16 0 0 1-.04.15c-.036.045-.054.102-.05.16s-.016.113-.06.15c-.036.029-.055.074-.05.12.009.071-.017.142-.07.19-.032.032-.05.075-.05.12a.2.2 0 0 1-.06.15c-.046.026-.067.08-.05.13.02 0 .05 0 .06-.01.055-.041.128-.049.19-.02.033.012.07.008.1-.01a.2.2 0 0 1 .17-.03c.04 0 .09.01.12-.01.051-.033.116-.037.17-.01.036.012.076.009.11-.01.042-.034.098-.046.15-.03a.86.86 0 0 0 .16-.01c.044-.018.093-.022.14-.01.036.012.076.009.11-.01.049-.025.105-.036.16-.03.04 0 .09.01.12-.01.057-.021.119-.028.18-.02a.36.36 0 0 0 .11-.02.34.34 0 0 1 .13-.09zm-8.91 3.12c.319.002.638-.031.95-.1v-.18c.008-.06.012-.12.01-.18l-.01-1.57v-.05a.13.13 0 0 0-.19-.11l-.06.03c-.04.02-.08.03-.11 0a.15.15 0 0 0-.17-.01c-.038.022-.086.018-.12-.01a.06.06 0 0 0-.04-.01c0 .02-.01.03-.01.04l-.12.77a.49.49 0 0 0 .07.39c0 .01.01.01.01.02.04.08.02.12-.07.12-.03-.002-.061.002-.09.01a3.95 3.95 0 0 0-.05.84zm1.89-8.75c.02-.01.03-.02.04-.02l.96-.79c.022-.021.043-.045.06-.07l.69-1.25a6.16 6.16 0 0 0-.8-.53c-.079.134-.146.274-.2.42-.01.05-.04.1-.05.15s-.04.12-.06.17c.015.007.029.018.04.03l.03.03c.019.014.03.036.03.06s-.011.046-.03.06c-.03.02-.06.05-.09.07-.068.055-.12.127-.15.21-.18.46-.31.93-.45 1.4-.008.019-.015.04-.02.06zm1.05 7.9l-.18-.28-.84-1.03c-.04-.05-.07-.09-.14-.08-.011.001-.022-.002-.03-.01a.2.2 0 0 0-.17.01c-.036.025-.084.025-.12 0-.05-.032-.115-.028-.16.01-.036.023-.081.027-.12.01-.059-.022-.124-.018-.18.01-.007.056.007.114.04.16l.97 1.55.05.08a5.14 5.14 0 0 0 .88-.43zm20.47-2.3h-.02c-.01.02-.03.05-.04.07l-.5.96-.46.88c-.161.288-.305.585-.43.89l-.03.08a4.11 4.11 0 0 0 .93.3 2.17 2.17 0 0 0 .07-.24l.44-2.68c.019-.086.032-.173.04-.26zm2.01-.01h-.01c-.002.021.002.041.01.06l.63 2.79a2.67 2.67 0 0 0 .09.26 6.03 6.03 0 0 0 .9-.36c-.034-.086-.074-.17-.12-.25l-1.46-2.43c-.011-.025-.025-.048-.04-.07zm-6.03.9l2.4-2.09c-.02 0-.04.01-.06.01l-2.63 1.12c-.082.033-.159.077-.23.13a4.42 4.42 0 0 0 .52.83zm7.64-2.2l-.01.01c.02.02.05.04.07.06l2.09 1.6c.09.07.19.12.28.18a4.5 4.5 0 0 0 .46-.86 1.47 1.47 0 0 0-.22-.1l-2.61-.88c-.02.001-.041-.003-.06-.01zm-5.68-1.86v-.02c-.018-.011-.039-.018-.06-.02l-2.7-.84c-.082-.025-.166-.045-.25-.06a5.51 5.51 0 0 0-.14.98.45.45 0 0 0 .12-.01c.02 0 .05-.01.07 0 .044.029.098.04.15.03l.33-.01h.15c0-.04.01-.07.01-.1 0-.05.01-.11.01-.16.01-.08.04-.1.11-.07l.18.09c.04.023.066.064.07.11.002.037.009.074.02.11l1.93-.03zm-1.47-3.83l.22.2 1.78 1.42a.22.22 0 0 1 .05.03v-.21a.2.2 0 0 0-.04-.13l-1.12-1.76a3.13 3.13 0 0 0-.17-.21 7.51 7.51 0 0 0-.72.66zm4.33 1h.01c0-.02.01-.04.01-.06l.09-.62.18-1.23a7.84 7.84 0 0 0 .11-.96c.001-.011-.002-.022-.01-.03a6.18 6.18 0 0 0-.96.02c0 .04.01.07.01.1v.08c-.005.03-.005.06 0 .09l.43 2.06.13.55zm-20.41 7.69l-.11-.15a.67.67 0 0 0-.06-.12l-.32-.49c-.04-.06-.07-.13-.16-.12-.008-.001-.015-.004-.02-.01-.046-.032-.108-.028-.15.01-.036.023-.081.027-.12.01-.06-.023-.127-.016-.18.02-.037.02-.083.02-.12 0-.045-.022-.099-.018-.14.01s-.088.032-.13.01c-.039-.015-.081-.015-.12 0-.063.028-.134.032-.2.01a.1.1 0 0 0-.1.02c.007.015.018.029.03.04l.3.36.79.94c0 .01.01.01.02.01.285-.151.55-.335.79-.55zm24.68-8.95a6.26 6.26 0 0 0-.76-.6c-.05.08-.11.14-.15.21l-1.23 2.3a.25.25 0 0 1-.04.07c.021-.001.039-.012.05-.03l1.94-1.76a1.7 1.7 0 0 0 .19-.19zm.73 3.83h-.13l-1.75.07c-.034.002-.068.009-.1.02l-.81.33c-.019.012-.039.022-.06.03l2.78.36.07-.81zm-1.77.02c0 .01 0 .01.01.02l1.78-.07c.01-.04.01-.08.02-.11s.01-.05.03-.06a1.76 1.76 0 0 1 .23-.14q.09-.045.12.06c0 .02.01.05.01.08 0 .05.01.1.01.16.254-.001.508-.018.76-.05a4.22 4.22 0 0 0-.2-.95c-.085.019-.168.042-.25.07l-2.44.96c-.029.004-.056.014-.08.03zm-5.33.57c-.04-.13-.04-.13-.15-.16l-.39-.12a.5.5 0 0 0-.12-.02l-1.97.04c-.021-.002-.041.002-.06.01l.09.8 2.6-.55zm-18.1.85a1.49 1.49 0 0 0-.02.21c0 .05-.08.06-.06.11a.2.2 0 0 1 .01.13 2.09 2.09 0 0 0-.01.25.09.09 0 0 0 .05.01l1.38.25c.02 0 .04.01.05 0 .044-.009.09-.002.13.02.02.01.05.01.08.02.048-.13.085-.264.11-.4-.05.03-.09.02-.11-.02-.01-.01-.03-.01-.05-.02-.048-.009-.095-.022-.14-.04-.04-.01-.09-.04-.12-.03-.08.03-.14-.02-.21-.04a.1.1 0 0 1-.06-.12c.01-.04.06-.08.1-.06.07.02.16 0 .21.08l.32.08c.03.01.06.01.1.02l.08-.38-1.45-.13c-.01.02-.01.04-.02.06s-.01.03-.01.06c-.03-.01-.07 0-.09-.02s-.02-.06-.03-.1c-.031.021-.065.037-.1.05-.043.023-.094.027-.14.01zm1.57 1.09a1.66 1.66 0 0 0-.29-.1l-1.26-.24a.25.25 0 0 1-.08-.01c.059.053.089.131.08.21l-.01.54v.09l1.15.4a4 4 0 0 0 .41-.89zm15.08-6.79l1.24 1.99c.007-.012.01-.026.01-.04l-.04-.46c-.035-.39-.095-.778-.18-1.16-.01-.05 0-.11-.07-.13-.01 0-.01-.02-.01-.03l-.05-.17c.01-.04.03-.06.03-.08l-.11-.41c-.292.13-.567.295-.82.49zm-18.29 6.97c.021.031.038.065.05.1l.67 1.12c.05.08.1.14.2.14a.38.38 0 0 0 .15-.01c.041-.02.089-.02.13 0a.16.16 0 0 0 .15-.01c.04-.033.096-.037.14-.01a.16.16 0 0 0 .15-.01c.042-.028.095-.032.14-.01.032.017.072.013.1-.01-.007-.015-.018-.029-.03-.04l-.66-.78a.24.24 0 0 0-.13-.07c-.193-.001-.362-.133-.41-.32-.05-.02-.09-.02-.13-.03s-.08.01-.1-.05c0-.01-.05-.01-.06 0-.03.04-.07.02-.1.02l-.26-.03zm-6.49-6.88c.04.05.1.08.11.12.026.057.067.106.12.14l1.31 1.09c.02.01.04.03.07.05-.007-.031-.017-.061-.03-.09l-.67-1.63a1.94 1.94 0 0 0-.15-.24 5.13 5.13 0 0 0-.76.56zm-.01 3.64v-.01c-.03-.01-.05-.03-.08-.04l-1.24-.67a2.68 2.68 0 0 0-.49-.21c-.104.299-.177.607-.22.92l.31.03 1.65-.02zm3.07 5.01v.71a5.82 5.82 0 0 1 1.12.18 6.63 6.63 0 0 0 .14-.99c-.01 0-.02 0-.02.01-.047.043-.118.047-.17.01-.019-.008-.039-.012-.06-.01a1.07 1.07 0 0 1-.25.03.67.67 0 0 1-.37-.05c-.03-.018-.067-.022-.1-.01-.105.016-.204.057-.29.12zm6.09-7.19a5.99 5.99 0 0 0-.46-.66c-.015.007-.029.018-.04.03l-.97.85c-.02.02-.05.04-.04.08-.002.018-.009.035-.02.05a.27.27 0 0 1-.08.07c-.04.03-.06.08-.13.06-.01 0-.03.02-.05.03l-.21.22a1.54 1.54 0 0 0-.12.13c.031-.002.061-.009.09-.02l1.47-.56a2.1 2.1 0 0 0 .56-.28zm-8.9 4.99c-.029.007-.06.011-.09.01l-.3.06-.97.18c-.2.036-.395.096-.58.18a5.59 5.59 0 0 0 .42.85 2.11 2.11 0 0 0 .22-.14l1.24-1.08a.34.34 0 0 1 .06-.06zm3.65-7.91c-.005.067-.005.133 0 .2.01.12.03.23.05.35l.23 1.29a2.05 2.05 0 0 0 .05.24h.01l.31-.98c-.041-.021-.081-.045-.12-.07-.021-.009-.036-.028-.04-.05l-.05-.25c-.005-.016-.002-.034.008-.047s.025-.022.042-.023a.17.17 0 0 1 .07.01l.2.05.12-.39.05-.27c-.308-.041-.619-.061-.93-.06zm2.19 11.83c-.032-.093-.072-.184-.12-.27l-.8-1.31a.61.61 0 0 0-.04-.06c0 .03-.01.04-.01.06l.04 1.76c0 .03.01.05.01.09a6.97 6.97 0 0 0 .92-.27zm-3.9-1.04l.82.03v-.72c.001-.03-.01-.058-.03-.08-.04-.07-.09-.13-.13-.2s-.03-.09.03-.14c.03-.02.05-.04.08-.06s.055-.052.05-.09l-.01-.43c0-.01-.01-.02-.01-.04-.01.01-.02.01-.02.02l-.62.75c-.023.028-.037.063-.04.1l-.09.63-.03.23zm2.21-7.79c.01 0 .01 0 .02.01l.88-1.53-.71-.34c-.006.005-.009.012-.01.02l-.32.98a.11.11 0 0 0 0 .08l.07.41.07.37zm-2.32 8.19l-.22-.06c-.07-.02-.07-.06-.03-.12l.12-.17c.015-.04.059-.062.1-.05h.11l.12-.87c-.03.03-.04.05-.06.06l-.34.41-.67.83a.21.21 0 0 0-.04.06c-.02.03-.03.07-.05.1a.35.35 0 0 1-.05.08 5.64 5.64 0 0 0 .87.39c.069-.215.116-.436.14-.66zm24.9-6.73l-1.03-2.96c-.022.01-.046.017-.07.02.021.089.038.179.05.27a8.93 8.93 0 0 1 .16 1.14l.04.56a.21.21 0 0 0 .04.11c.08.14.17.27.26.4.017.025.038.049.06.07l.45.36c.01.02.02.03.04.03zm-23.92 6.88v.09l.01.7c.005.005.009.012.01.02a4.96 4.96 0 0 0 .94.07l.12-.83-1.08-.05zm3.8-10.59a5.6 5.6 0 0 0-.9-.4l-.05.12c-.02.04-.05.06-.07.09l-.26.48 1.02.49c.01-.01.01-.02.02-.03l.18-.5c.008-.019.012-.039.01-.06 0-.03.01-.06.01-.09a.42.42 0 0 0 .04-.1zm2.41 8.39a8.61 8.61 0 0 0-1.11-.45.2.2 0 0 1-.22.09.5.5 0 0 0-.12-.02c-.04 0-.08-.01-.11.01.008.008.011.019.01.03l.66.79c.015.029.05.042.08.03.03-.002.061.002.09.01.047.027.107.023.15-.01s.096-.037.14-.01c.056.029.124.012.16-.04.08-.149.171-.293.27-.43zm24.5-2.58l-.1 1.01.74.1a5.29 5.29 0 0 0 .15-.97 3.64 3.64 0 0 0-.79-.14zm-10.64.31v-.9l-.81.04c-.034.33-.021.664.04.99.26-.023.517-.066.77-.13zm-.58 1.19a4.54 4.54 0 0 0 .68-.14l-.1-1.02-.78.18a6.3 6.3 0 0 0 .2.98zm11.21-1.55l.8.1c.015-.33.005-.661-.03-.99-.255-.033-.514-.037-.77-.01zm-30.78 5.62c-.002-.034.001-.067.01-.1 0-.03.01-.06.01-.09.011-.029.018-.059.02-.09v-.46c.002-.021-.002-.041-.01-.06l-.89-.13-.08.44v.02c.03.04.01.08 0 .12s-.01.06-.02.09c.311.117.632.204.96.26zm1.74-11.39l.83.29.22-.39a1.63 1.63 0 0 0 .11-.31c-.303-.101-.614-.178-.93-.23-.021.075-.047.149-.08.22a2.3 2.3 0 0 0-.15.42zm9.17 7.86c.232-.015.458-.084.66-.2a2.03 2.03 0 0 0 .18-.13.13.13 0 0 0 .05-.13c-.01-.06-.042-.113-.09-.15l-.43-.27c-.023-.018-.054-.022-.08-.01a1.6 1.6 0 0 1-.21.05c-.057.006-.104.045-.12.1l-.18.5c-.01.019-.01.041 0 .06a.2.2 0 0 0 .22.18zm-4.08-2.57c0-.01 0-.01-.01-.02-.087-.008-.174-.022-.26-.04l-1.55-.25c-.037-.006-.075-.003-.11.01l-.64.26c-.02.01-.03.02-.05.03.005.006.012.009.02.01l.98.07.74.06.62.06a.1.1 0 0 0 .07-.02c.07-.049.134-.106.19-.17zm2.06.45c.167-.46.484-.851.9-1.11-.08.06-.15.03-.23.01a.2.2 0 0 0-.08.01.16.16 0 0 1-.15.01c-.053-.023-.114-.016-.16.02-.028.023-.068.027-.1.01-.057-.032-.127-.028-.18.01-.03.02-.07.02-.1 0-.06-.04-.12-.02-.19.01.005.047.005.093 0 .14a.25.25 0 0 0 .01.17c.015.045.015.095 0 .14-.02.058-.02.122 0 .18a.2.2 0 0 1-.01.17c-.009.036-.012.073-.01.11 0 .03.02.05.03.09.088.021.179.031.27.03zm-3.2 3.51c-.03-.03-.06-.05-.09-.08-.01-.01-.04-.03-.04-.04-.01-.07-.05-.08-.11-.08-.01 0-.02-.01-.03-.01-.045-.022-.098-.018-.14.01s-.095.032-.14.01a.16.16 0 0 0-.15.01c-.038.028-.088.032-.13.01a.1.1 0 0 0-.13.01c-.049.036-.114.044-.17.02-.048-.021-.104-.009-.14.03.179.286.376.56.59.82.242-.222.469-.459.68-.71zm1.35-4.5a.54.54 0 0 0-.15.04c-.035.015-.075.015-.11 0a.2.2 0 0 0-.17 0 .14.14 0 0 1-.11 0c-.058-.027-.125-.023-.18.01-.029.025-.071.025-.1 0-.055-.035-.125-.035-.18 0-.041.02-.089.02-.13 0s-.083-.02-.12 0c-.048.018-.1.022-.15.01a.2.2 0 0 0-.17.01c-.013.014-.033.018-.05.01-.09-.03-.16.03-.24.06-.038.012-.075.029-.11.05l.5.1 1.18.18c.106.01.214.01.32 0l-.03-.47zm16.58-11.89h.01v-.04a2.91 2.91 0 0 1-.1-.59 1.07 1.07 0 0 1-.03-.25.44.44 0 0 0-.02-.2c-.047-.215-.135-.419-.26-.6a.84.84 0 0 0-.21-.21l-.2.39c.086.189.19.37.31.54l.36.66a2.02 2.02 0 0 1 .14.3zm-13.17 14.16c-.274-.044-.533-.15-.76-.31-.05-.03-.08-.03-.13.02s-.09.07-.06.14a2.32 2.32 0 0 0 .22.41 1.22 1.22 0 0 0 .33.31c.047.04.111.052.169.031s.1-.071.111-.131c.05-.15.07-.31.12-.47zm-8.77.7c-.005.011-.012.021-.02.03l-.1.63c-.006.036.005.073.03.1l.32.5.09.14c.032-.019.066-.035.1-.05l.01-.6a.69.69 0 0 0-.01-.25c-.039-.077-.093-.145-.16-.2l-.26-.3zm-2.32 1.29c.02-.02.04-.03.05-.04l.58-.69c.025-.027.036-.064.03-.1l-.01-.49c0-.02-.01-.03-.01-.05-.008.001-.015.005-.02.01l-.47.4c-.03.02-.03.05-.04.08l-.08.59-.03.29zm3.29-2.88l.32.55c.014.026.041.041.07.04l.48.07c.04.01.08.01.14.02a.81.81 0 0 0-.06-.08l-.48-.61c-.026-.041-.071-.067-.12-.07-.02 0-.06-.01-.06-.03-.025-.059-.087-.092-.15-.08a1.82 1.82 0 0 0-.14.19zm22.42-2.34c.09-.01.1-.01.1-.04.02-.069.02-.141 0-.21l-.31-.79-.94-2.44a.63.63 0 0 0-.04-.09c-.01.02-.02.03-.01.04l1.2 3.53zm-21.13 3.06a.6.6 0 0 1-.02-.12v-.13c0-.02.01-.04 0-.05-.04-.05 0-.12-.06-.16-.01-.01 0-.04 0-.06.008-.087.022-.174.04-.26l-.48-.07c-.005.02-.012.041-.02.06 0 .02-.01.03-.02.06-.03-.01-.07-.02-.08-.04s-.02-.06-.04-.09c-.02 0-.05-.01-.07-.01l-.06.09c0 .01 0 .01.01.02l.57.7c.01.019.029.03.05.03.059.015.119.025.18.03zm-6.51.23h.07l.87-.16c.03-.011.057-.028.08-.05a3.92 3.92 0 0 0 .25-.32c.01-.01.01-.02.02-.04-.02 0-.03-.01-.04-.01h-.57c-.037.003-.072.017-.1.04l-.53.48c-.02.02-.03.04-.05.06zm12.13-1.25l.86.1v-.05l-.18-.58c-.01-.032-.037-.055-.07-.06-.074-.02-.153-.001-.21.05-.161.129-.291.293-.38.48-.011.018-.018.039-.02.06zm-4.68-.86v-.02l-.55-.11h-.02c-.03-.01-.06-.01-.09-.02-.048-.018-.1-.022-.15-.01a.3.3 0 0 1-.1.02c-.038-.002-.074.013-.1.04l-.33.22c-.012.011-.023.025-.03.04a1.84 1.84 0 0 1 .25.09c.099.039.204.059.31.06a.5.5 0 0 0 .12-.02l.63-.26zm18.1-14.66l-.14-.17a1.74 1.74 0 0 0-.12-.14c-.06-.07-.08-.07-.12.01-.011.011-.017.025-.02.04-.02.03-.04.05-.08.04-.02 0-.05-.01-.06 0a.31.31 0 0 0-.18.14c-.04.09-.11.11-.21.09-.048-.016-.095-.036-.14-.06-.05.04-.1.17-.06.21.028.033.039.078.03.12h.66c.009-.041.022-.082.04-.12.028-.102.125-.17.23-.16.057.005.113.005.17 0zm-24.88 14.07c0 .01 0 .01-.01.02.02.01.03.03.05.04l.31.26c.029.028.071.039.11.03l.78-.17.23-.05c-.03-.06-.05-.11-.07-.16zm7.07-3.43c-.094-.11-.202-.207-.32-.29-.05.06-.07.15-.15.18-.01.01-.01.02-.02.04l-.48.86c-.01.02-.01.03-.02.05l.99-.84zm-2.82 2.33v-.02l-.8-.41.14.81.66-.38zm-2.95 2.37l-.2-.12c-.01-.009-.024-.012-.037-.01s-.025.009-.033.02l-.56.51c-.013.008-.022.022-.024.038s.003.031.014.042a.96.96 0 0 0 .27.26l.57-.74zm.09 2.34c.02 0 .02 0 .03-.01l.46-.39a.1.1 0 0 0 .03-.09l-.01-.33v-.11c-.06-.03-.1-.04-.14.01-.01.02-.05.02-.08.02-.05 0-.11-.01-.17-.01l-.12.91zm2.65 1.11c.043.025.097.025.14 0s.103-.025.15 0c.04.025.09.025.13 0 .049-.036.114-.044.17-.02.042.015.088.015.13 0l-.68-.78c-.01 0-.01 0-.02.01l-.02.79zm-3.69-4.35l-.38-.32a.21.21 0 0 0-.13-.05l-.68.02c-.01 0-.01.01-.02.01s.01.01.01.02l.73.4c.021.013.046.017.07.01l.4-.09zm3.29 2.49l-.06.38a.1.1 0 0 0 .03.1l.35.39c.011.012.025.023.04.03l.02-.86-.38-.04zm21.45-4.11v.57c-.001.029.014.056.04.07a1.38 1.38 0 0 0 .43.19c.038.002.074-.013.1-.04.013-.011.022-.026.024-.043s-.003-.034-.014-.047l-.17-.3c-.116-.153-.254-.288-.41-.4zm4.09.13c-.03.02-.04.03-.05.03l-.69.62a.1.1 0 0 0-.04.05c-.028.068-.051.139-.07.21l.17.09c.01 0 .03.01.03 0 .07-.05.16-.08.21-.16l.41-.78c.006-.022.016-.042.03-.06zm-21.52 1.42c.045.023.099.019.14-.01s.095-.032.14-.01c.051.035.119.035.17 0 .034-.018.073-.022.11-.01.051.027.113.023.16-.01a.1.1 0 0 1 .12-.01c.055.043.131.047.19.01.037-.02.083-.02.12 0 .03.01.07.01.11.02-.006-.131-.023-.262-.05-.39a2 2 0 0 0-.26.05l-.85.32a.69.69 0 0 0-.1.04zm-5.7 3.47c.01 0 .01.01.02.01l.56-.67c-.02-.028-.037-.058-.05-.09-.02-.04-.05-.07-.09-.06-.041.004-.081-.011-.11-.04l-.3.26c-.018.019-.029.044-.03.07-.01.17 0 .35 0 .52zm23.88-16.29c.01-.03.02-.04.02-.05l.08-.43c.024-.131-.036-.262-.15-.33l-.06-.03-.34-.19-.06-.03.02.07c.162.276.296.568.4.87a.2.2 0 0 0 .04.08c.01.01.03.02.05.04zm-16.13 2.86h.08c.079-.017.159-.024.24-.02.07.01.14 0 .21.01.093.002.184-.034.25-.1l.37-.34c.01-.01.02-.03.04-.05a2.17 2.17 0 0 0-1.19.5zm-6.63 7.98l.19-.31c.021-.033.028-.072.02-.11l-.13-.66c-.004-.031-.011-.061-.02-.09a.49.49 0 0 1-.03.07l-.14.4c-.037.068-.061.143-.07.22a.65.65 0 0 0 .08.22l.1.26zm-2.42-.43l-.01.01c.01.02.01.04.02.06l.23.6c.012.043.041.079.08.1.09.053.184.099.28.14a.49.49 0 0 0 .07.03l-.08-.41c-.007-.045-.032-.085-.07-.11l-.38-.31zm3.82 4.79c.01-.01.01-.02.02-.03.03-.07.03-.07.1-.07.05 0 .1.01.15.01l.25.02-.1-.19a.1.1 0 0 0-.08-.06l-.26-.04-.36-.05c-.07-.01-.11.02-.11.1v.18l.39.13zm22.79-4.42c-.01.04-.01.06-.02.07l-.07.51-.05.35c-.01.071.014.142.066.192s.124.071.194.058c.02 0 .05-.01.05-.02.02-.08.07-.16.04-.25l-.19-.83a.45.45 0 0 0-.02-.08zm-24.25 5.68c.003.05.04.092.09.1.06.02.07.05.05.1-.029.049-.02.111.02.15.04.05.04.06-.01.11-.04.026-.06.074-.05.12.02.09.02.09-.06.1-.021.001-.041.012-.052.03s-.015.04-.008.06l.03.1a.25.25 0 0 1 .25-.01c.01-.022.017-.046.02-.07l.09-.55a.3.3 0 0 0-.06-.27c-.05-.06-.08-.12-.13-.19l-.18.22zm-2.05-5.24c0 .02 0 .03.01.04l.45 1.15c.02.05.05.05.09.03v-.02l-.18-.98c0-.02-.03-.05-.05-.06l-.28-.15a.06.06 0 0 0-.04-.01zm28.08 2.21l.23.03a.18.18 0 0 0 .1-.02l.75-.3c.019-.012.039-.022.06-.03h-.1l-.8.03a.62.62 0 0 0-.32.14c.021.053.047.103.08.15zm-4.08-14.42l-.02.02c.01.01.02.03.04.04a1.45 1.45 0 0 1 .17.18c.164.221.27.478.31.75 0 .02 0 .06.02.07.04.03.03.08.05.12l.12.42h.02l-.03-.58c0-.01-.01-.03 0-.04.04-.05 0-.1-.01-.15l-.12-.32c-.01-.03-.02-.06-.04-.07-.1-.11-.21-.21-.32-.31a1.07 1.07 0 0 0-.19-.13zm-23.42 13.42c.05.02.07.01.09-.03.018-.053.053-.099.1-.13.01 0 .01-.02.02-.03-.02-.036-.043-.069-.07-.1.036-.031.069-.064.1-.1a.59.59 0 0 0-.08-.04.1.1 0 0 1-.06-.12c0-.05.03-.07.08-.08.03-.01.06-.01.09-.02-.02-.06-.05-.11-.07-.18-.05-.02-.11-.06-.17-.09-.058-.039-.122-.066-.19-.08l.16 1zm.43 4.31c.077-.055.119-.146.11-.24-.01-.04.03-.07.07-.09.066-.019.116-.073.13-.14.007-.039.04-.068.08-.07s.075-.032.09-.07a.2.2 0 0 1 .11-.13c.022-.013.037-.035.04-.06a3.25 3.25 0 0 0 .07-.3v-.08a.81.81 0 0 0-.08.06l-.6.73c-.016.02-.026.044-.03.07l.01.32zm-1.33-3.31a.99.99 0 0 0-.22.74l.59-.53-.37-.21zm.52.08c.03-.03.07-.05.1-.08.013-.014.02-.031.02-.05.015-.182.066-.359.15-.52.01-.01.01-.03.02-.05a2.53 2.53 0 0 0-.64.42l.35.28zm20.8-14.81a2.14 2.14 0 0 0 .22-.1 1.02 1.02 0 0 1-.15-.08c-.039-.031-.067-.073-.08-.12a.75.75 0 0 1 0-.15c-.1.03-.2-.03-.3-.02l-.03.1a.18.18 0 0 1-.06.09c-.06.04-.05.09-.04.14.01.03.01.06.02.1.1-.01.2-.01.29-.01.049-.006.098.012.13.05zm-18.12 18.59l-.4-.65h-.02l-.1.65c.058-.028.126-.024.18.01.032.013.066.017.1.01.064-.025.136-.025.2 0 .01-.012.024-.02.04-.02zm1.93-4.34a.09.09 0 0 0-.1.01c-.049.03-.111.03-.16 0-.032-.023-.074-.027-.11-.01-.047.033-.109.037-.16.01a.2.2 0 0 0-.15 0 .14.14 0 0 1-.14 0c-.035-.013-.073-.017-.11-.01s-.09.03-.15.05a.3.3 0 0 0 .08.04l.52.19c.033.012.07.008.1-.01l.34-.23zm-1.23-.37l.49-.91c-.03.01-.04 0-.05.01l-.39.27c-.016.013-.026.03-.03.05l-.13.45a1.09 1.09 0 0 1 .11.13zm24.28 1.96l.18.19c.02.019.044.033.07.04l.65.22a.09.09 0 0 0 .05.01c-.018-.028-.042-.052-.07-.07l-.51-.4a.5.5 0 0 0-.31-.1.3.3 0 0 0-.06.11zm-27.52-3.6c-.01 0-.01.01-.02.01l.07.39c.004.022.019.041.04.05l.36.18c.05-.11.14-.07.24-.07l-.69-.56zm3.19 3.33c-.046.058-.077.127-.09.2s-.053.138-.12.17c-.053.021-.093.065-.11.12l.65.09-.33-.58zm20.65-1.64c.05.01.09.03.14.04.09.02.15-.03.15-.13 0-.02 0-.05.01-.06.03-.04.01-.07-.01-.1l-.24.05c-.02-.06-.06-.1-.05-.16l.19-.11c.025-.019.045-.043.06-.07-.11-.05-.2-.11-.3-.16l-.01.33c0 .04-.02.09.05.11l.01.01c0 .09.04.17 0 .25zm-21.92 3.59l.18.27c.01-.01.02-.01.02-.02l.1-.63c0-.01 0-.04-.01-.05l-.17-.19-.03.22c-.006.138-.036.273-.09.4zm24.63-1.22c.06-.01.06-.05.06-.09l-.02-.51a.1.1 0 0 0-.13 0 .6.6 0 0 0-.11.06c-.04.06-.07.12-.11.19l.31.35zm-.98-.35v.39c0 .02.01.04.03.04s.035-.009.05-.02a1.13 1.13 0 0 0 .1-.13l.26-.34c.04-.05.03-.08-.04-.1-.05-.01-.09-.02-.13.03-.022.019-.045.036-.07.05a1.67 1.67 0 0 0-.2.08zm-26.3-1.31c.046-.051.09-.104.13-.16l-.29-.24c-.013-.014-.033-.018-.05-.01l-.37.08v.02l.58.31zm.78-.61a5.94 5.94 0 0 0-.9.2l.29.24c.177-.18.384-.328.61-.44zm3.55 2.17c.03.06.07.1.09.15s.074.085.13.08l.53.04h.08l-.11-.13c-.024-.026-.055-.044-.09-.05l-.35-.05-.28-.04zm-4.15-.35c.025.036.067.055.11.05h.46a.77.77 0 0 0-.19-.3c-.04-.05-.1-.03-.14-.06l-.24.31zm27.21.7v.25c.001.035.011.07.03.1l.3.51c.01.01.02.03.03.04.01-.02 0-.03 0-.04l-.14-.62a.4.4 0 0 0-.16-.22c0-.01-.03-.01-.06-.02zm-25.94-3.78c.06.06.06.06.11.06l.32-.01.07-.26a.14.14 0 0 0-.02-.14 1.2 1.2 0 0 0-.48.35zm-1.05 3.46c0-.01 0-.01.01-.02-.07-.03-.04-.12-.11-.16a.99.99 0 0 1-.17-.11c-.116.12-.217.255-.3.4l.57-.11zm24.15.14l.01.01c.02-.01.05-.02.07-.03l.47-.2a.39.39 0 0 0 .19-.19c-.03-.03-.05-.06-.07-.08a.33.33 0 0 0-.24.1.5.5 0 0 0-.08.07l-.35.32zm-.21-16.2a1.39 1.39 0 0 0 .06-.19c.02-.08-.02-.12-.09-.14-.03-.01-.05-.01-.08-.02a.21.21 0 0 0-.27.21l.38.14zm3.31 15.06c-.04.02-.08.03-.09.05-.04.09-.1.18-.05.29l.47.07a2.2 2.2 0 0 0-.33-.41zm-3.16-1.14c0 .06-.01.12-.01.17.004.023.014.043.03.06l.28.15a1.21 1.21 0 0 0 .05-.14c.01-.02.01-.04.02-.06.013-.039.008-.081-.013-.116s-.057-.058-.097-.064a1.13 1.13 0 0 1-.26 0zm3 .31l.19.05.2-.38c-.06-.13-.16-.07-.26-.07a4.68 4.68 0 0 0-.13.4zm-1.52 3.03c.01 0 .01 0 .02.01.01-.02.03-.05.04-.07l.19-.37a.59.59 0 0 0 .06-.32c.003-.022-.009-.043-.03-.05-.03-.01-.04 0-.06.02a.42.42 0 0 0-.14.28.5.5 0 0 1-.02.12l-.06.38zm-21.82-3.06c.02.1-.06.16-.02.25l.4.03a.21.21 0 0 0 .19-.08l-.57-.2zm22.85-.83a.67.67 0 0 0-.16.12c-.04.04-.06.08-.03.13s.04.11.07.16.03.08.05.12a1.22 1.22 0 0 0 .17-.07l-.1-.46zm-26.96 2.36l-.28-.29c-.108.091-.212.188-.31.29zm25.51-.19c.03.05.06.04.1.04l.55-.12c.01 0 .02-.01.04-.02l-.52-.11-.17.21zm1.49-2.19l.1.45.28-.26a1.5 1.5 0 0 0-.38-.19zm-3.09-13.29c.005.16.054.315.14.45a2.43 2.43 0 0 0 .18-.32c-.09-.076-.202-.121-.32-.13zm-3.2-.52c.06-.039.139-.031.19.02.06-.06.11-.11.1-.2-.118-.047-.243-.074-.37-.08a.22.22 0 0 0 .08.26zm4.15 13.18c.064.146.144.283.24.41.03 0 .06-.01.09-.01.04.06.04.17.17.13-.007-.078-.038-.151-.09-.21l-.41-.32zm2.68 1.12c-.01 0-.01-.01-.02-.01l-.37.24c.01.11.01.11.09.12l.16.03.14-.38zm-26.21 2.93c.01 0 .01.01.02.01l.34-.29c-.018-.028-.038-.055-.06-.08a.69.69 0 0 1-.1.04c-.027.018-.061.022-.092.013s-.056-.033-.068-.063c-.01-.02-.02-.03-.04-.07zm26.13-1.35v.14l.32.11c.02.01.05.01.05 0 .053-.041.085-.103.09-.17l-.46-.08zm-25.17-2.56c.076-.012.153-.018.23-.02.021-.002.042-.009.06-.02.06-.03.08-.05.06-.11-.024-.076-.054-.149-.09-.22-.075.02-.13.083-.14.16-.003.031-.017.059-.04.08l-.08.13zm24.72 3.34a.89.89 0 0 0-.17-.29l-.17.15c-.06.05-.04.12.04.13.099.018.2.021.3.01zm.8-.49c-.113-.049-.23-.089-.35-.12.01.11-.06.22.02.32.124-.04.237-.109.33-.2zm-25.05.76c-.011.063-.018.126-.02.19-.001.011.002.022.01.03a1.05 1.05 0 0 0 .18.19l.06-.38zm.08-3.94l.01-.01-.06-.38c-.001-.018-.013-.034-.03-.04a.69.69 0 0 0-.25-.03c.03.06.02.14.11.15.01 0 .02.02.04.04a.54.54 0 0 1 .07.13c.01.04.07.09.11.14zm25.29 2.32l-.36.14c.05.11.16.14.24.22a1.09 1.09 0 0 0 .12-.36zm-25.87-3.27h-.02l-.13.39a.37.37 0 0 1 .09-.02c.02 0 .04-.01.05 0 .05.05.11.03.17.01l-.16-.38zm-2.21 2.94l.39.22.07-.07-.34-.28a1.54 1.54 0 0 0-.12.13zm4.61-.59l-.73-.14.07.13c.02.04.05.05.08.03a.14.14 0 0 1 .14 0c.035.013.073.017.11.01.056-.03.124-.03.18 0 .052.018.109.006.15-.03zm23.33.34c-.024-.12-.068-.235-.13-.34l-.19.36.32-.02zm-.28.6a.93.93 0 0 0 .05.1l.33-.13a.1.1 0 0 0 .05-.04c.032-.083-.002-.177-.08-.22-.07.04-.07.04-.06.12s.02.09-.08.12c-.06.01-.13.03-.21.05zm-22.25 1.53c0-.01 0-.01.01-.02l-.12-.19c-.01-.01-.02-.02-.03-.02-.084-.008-.168-.022-.25-.04 0 .01-.01.01-.01.02a.64.64 0 0 0 .1.13c.05.03.05.1.11.13.016-.014.03-.031.04-.05.049.018.099.031.15.04zm-1.55-3.23l-.01-.01-.25.2c-.03.02-.02.04-.01.07.036.064.092.113.16.14.03-.14.07-.27.11-.4zm18.93-13.06a5.58 5.58 0 0 1 .89-.17c-.083-.01-.167-.01-.25 0l-.34.03c-.035-.009-.072-.002-.1.02a.21.21 0 0 0-.06.04l-.03-.03c-.04-.04-.07-.03-.08.03-.017.023-.028.051-.03.08zm-11.48 15.97a1.98 1.98 0 0 0 .35.08c-.08-.18-.17-.23-.33-.21a.69.69 0 0 1-.02.13zm-8.95-4c-.01-.01-.01-.02-.02-.02s-.05.02-.06.04c-.062.082-.157.133-.26.14.04.08-.01.18.11.23l.09-.16c.01-.02.03-.04.03-.06-.02-.05.02-.08.05-.1.017-.025.038-.049.06-.07zm24.42 4.4a.1.1 0 0 0 .05-.04c.01-.01-.01-.05-.02-.06l-.28-.15c-.014-.009-.032-.011-.048-.005s-.028.019-.032.035c-.01.04.01.05.04.07l.24.13c0 .01.02.01.05.02zm-.71-1.15l-.11-.18a.11.11 0 0 0-.12-.08l-.13.17.36.09zm-.22.88v-.02l-.15-.3c-.012-.021-.038-.029-.06-.02a.04.04 0 0 0-.02.06l.11.28c.019.022.043.039.07.05.014.001.027-.004.036-.014s.015-.023.014-.036zm-20.09-4.59c.03-.01.04-.02.05-.02l1.02-.87v-.01l-.01-.01c-.07.04-1.02.84-1.06.91zm.72 2.47v-.02c-.017-.003-.035.001-.05.01-.043.023-.094.027-.14.01a.2.2 0 0 0-.11 0 .34.34 0 0 1-.2 0c-.053-.021-.114-.005-.15.04l.37.08a.06.06 0 0 0 .04-.01c.077-.043.157-.079.24-.11zm19.44 1.89c-.02 0-.03-.01-.05-.01v.01l.17.13.05-.31-.25.04c.01.06.09.07.08.14zm.94-.17c-.03.03-.05.04-.03.08l.18.3a1.13 1.13 0 0 0 .15-.04l-.3-.34zm-2.54-15.75a1.25 1.25 0 0 1 .12.08c.03.02.06.05.1.08s.05.07.11.07c-.079-.138-.165-.272-.26-.4h-.02c-.02.05-.03.11-.05.17zm2.77 13.74l.27-.03c.01 0 .03-.01.04-.01q.09-.045.03-.12a.6.6 0 0 0-.08-.08c-.082.085-.169.165-.26.24zm-23.72 2.42a1.26 1.26 0 0 0-.33-.1c-.012.046-.018.093-.02.14l.35.05zm20.99-16.57c.04-.08.05-.09.02-.13-.038-.07-.085-.134-.14-.19-.047-.043-.107-.067-.17-.07a3.58 3.58 0 0 1 .29.39zm-21.66 12.34a1.8 1.8 0 0 0-.06-.32c-.067.085-.121.179-.16.28a1.7 1.7 0 0 0 .22.04zm23.79 1.65l.13-.12a.08.08 0 0 0-.03-.13.59.59 0 0 0-.19-.01 2.67 2.67 0 0 1 .09.26zm-.9 1.54l.17-.14c-.048-.03-.105-.041-.16-.03-.032.015-.068.015-.1 0-.03-.006-.062-.003-.09.01-.01 0-.01.03-.02.05.065.04.131.077.2.11zm1.86.93l.24-.02c.02-.004.037-.014.05-.03.013-.021.017-.046.01-.07 0-.01-.04-.03-.05-.02l-.28.04.03.1zm-2.26-2.28a.62.62 0 0 1 .08-.12c-.021-.067-.08-.114-.15-.12-.056.003-.107-.035-.12-.09-.001-.011-.009-.019-.02-.02-.01.01-.01.01-.02.01-.01.046.01.094.05.12.07.039.124.104.15.18.01.02.02.02.03.04zm-.5.52l-.3-.16.02.23c.09-.04.19.02.28-.07zm2.12-.43c-.017-.059-.041-.116-.07-.17l-.07-.16c-.05.06-.08.1-.06.16a2 2 0 0 0 .1.21.42.42 0 0 0 .1-.04zm1.3 1.41l.13-.11a.1.1 0 0 0 .03-.1c-.01-.04-.05-.06-.08-.03-.06.05-.11.11-.17.16.03.03.06.05.09.08zm-24.69-2.62a1.51 1.51 0 0 0-.4.23.6.6 0 0 0 .08.08c.11-.09.2-.2.32-.31zm.39 1.71c.11.03.12.02.16-.07.011-.022.018-.046.02-.07a.2.2 0 0 0-.01-.08c-.006-.017-.022-.029-.04-.029s-.034.012-.04.029a.6.6 0 0 0-.09.22zm23.39-1.2c-.08 0-.1.04-.07.09.028.045.058.088.09.13.008.011.019.018.033.02s.027-.002.037-.01c.019-.014.031-.036.03-.06-.006-.044-.023-.085-.05-.12-.02-.03-.06-.04-.07-.05zm-20.09 5.05l-.01-.01c-.059.028-.128.032-.19.01-.042-.008-.086.003-.12.03l.18.15.14-.18zm-6.7-3.01c.03.03.03.1.1.09 0-.02.01-.03.01-.04.014-.095.06-.183.13-.25.04-.03.01-.06-.01-.1l-.23.3zm25.25-.59a.47.47 0 0 0 .21.23c.031-.062.02-.136-.026-.187s-.12-.068-.184-.043zm2.63.18c-.01-.01-.01-.04-.03-.05s-.049-.003-.07.01c-.032.035-.062.071-.09.11-.01.011-.015.027-.013.042s.01.029.023.038.038.02.06.02a.22.22 0 0 0 .12-.17zm-22.7-2.99l-.02-.02-.37.32c0 .03.01.06.01.1a4.91 4.91 0 0 1 .38-.4zm18.43 2.58v.02l.39.12-.03-.14zm-23.34 1.33h-.46c.021.036.059.058.1.06a.69.69 0 0 1 .13.02c.009-.023.029-.039.052-.045s.049 0 .068.015a.38.38 0 0 0 .1.03c.008-.001.015-.004.02-.01 0-.02-.01-.04-.01-.07zm27.23-1.79v.05c0 .03.01.06.05.06s.05-.01.06-.05c.011-.029.018-.059.02-.09a.14.14 0 0 0-.03-.09c-.03-.04-.07-.03-.09.02-.009.033-.012.066-.01.1zm-2.48 1.55l.19-.23c-.04 0-.08-.02-.09-.01a1.3 1.3 0 0 0-.18.15c.03.03.05.06.08.09zm2.38-.98v-.03l-.3-.03c-.01.02-.02.03-.02.04s-.01.05 0 .07.04.01.06.01l.26-.06zm-2.3.71c-.031-.027-.064-.05-.1-.07-.06-.03-.11 0-.11.07a.25.25 0 0 0 .04.14c.054-.05.111-.096.17-.14zm.66.52c-.05.05-.07.15-.09.36.03.02.06.03.09.05zm-.77-1.81c-.08.08-.05.23.06.34.02-.03.04-.06.02-.1-.02-.08-.05-.15-.08-.24zm1.69.07l.28-.18c0-.01 0-.01-.01-.02l-.3.06.03.14zm-23.35 1.2c-.09.04-.154.123-.17.22 0 .01.01.01.01.02l.22-.12c-.03-.05-.04-.09-.06-.12zm23.79-1.55c.065-.082.065-.198 0-.28-.032.027-.063.058-.09.09.02.06.06.12.09.19zm.27 2.19h0c.038.003.076-.004.11-.02.02-.01.03-.04.04-.06s-.02-.05-.05-.05c-.04-.002-.081.002-.12.01-.05.01-.08.05-.07.08.01.05.05.04.09.04zm-1.39-.29v-.02a.56.56 0 0 1-.08-.05c-.04-.04-.08-.03-.13 0v.15l.21-.08zm.47-1.59c.01.02.01.05.02.07.018.032.054.049.09.04.03-.01.06-.03.05-.07s-.01-.07-.02-.11c-.056-.002-.108.024-.14.07zm-2.46.44l.02.12a.05.05 0 0 0 .09.02c.03-.04.06-.09.1-.15a1.55 1.55 0 0 1-.21.01zm3.61-.13a.69.69 0 0 0-.02.13c-.007.014-.008.031-.003.047s.018.027.033.033.035.001.051-.008.026-.024.029-.042c.02-.05.02-.1.04-.16a.56.56 0 0 0-.13 0zm-1.42 1.5l-.3.39c.156-.075.268-.22.3-.39zm-1.52-.53l-.03.12a.1.1 0 0 0 .04.1c.01.009.024.012.037.01s.025-.009.033-.02c.02-.026.028-.059.022-.092s-.025-.061-.052-.078c-.014-.016-.031-.03-.05-.04zm-.67-3.1c-.01 0-.01.01-.02.01.02.06-.02.14.05.19a.5.5 0 0 0 .17.11l-.2-.31zm-21.35 3.75c-.011.025-.018.052-.02.08 0 .01.01.03.01.04.027.019.061.026.094.018s.06-.029.076-.058c.01-.04 0-.07-.04-.07-.03-.02-.07-.01-.12-.01zm.43-2.49c-.09.06-.11.08-.08.14.018.036.046.067.08.09.01.01.03 0 .06 0l-.06-.23zm.1 2.26c.04 0 .07-.02.07-.06s-.02-.06-.08-.06c-.031-.003-.063.004-.09.02-.024.005-.041.026-.041.05s.017.045.041.05zm24.56-1.44a.44.44 0 0 0 .02-.1c-.003-.031-.017-.059-.04-.08a.04.04 0 0 0-.07.02l-.03.17c.039-.008.08-.012.12-.01zm-1.07 2.13a.9.9 0 0 1-.05-.09.1.1 0 0 0-.13-.03c-.03.01-.04.04-.02.06.042.032.085.062.13.09.01 0 .04-.02.07-.03zm-24.25-3.7c-.1.09-.1.09-.04.21.02.05.05.04.09.03-.023-.078-.04-.159-.05-.24zm24.97 1.13c.09-.11.09-.14.03-.22-.03.02-.08.03-.08.07s-.01.11.05.15zm-.09.5v.02c.03.026.063.046.1.06.03.02.06.04.09.01.03-.024.042-.064.03-.1h-.16c-.02 0-.04.01-.06.01zm-23.17-1.64c.136-.011.262-.076.35-.18a.84.84 0 0 0-.35.18zm21.74 3.8c.07-.09.07-.11 0-.16-.01-.01-.05-.02-.06-.01-.019.014-.031.036-.03.06.02.044.051.081.09.11zm.61-3.34l.03.14c.003.015.013.028.027.034s.03.005.043-.004.025-.015.03-.028.006-.028 0-.042c-.013-.035-.029-.069-.05-.1-.01-.02-.04-.03-.08 0zm1.42 1.46c-.03-.01-.05-.01-.08-.02-.06-.01-.08.01-.1.06-.008.017-.004.037.01.05s.04.02.05.01c.056-.008.102-.047.12-.1zm-25.94-1.53c-.01-.02-.01-.03-.02-.04-.031-.029-.065-.056-.1-.08-.007-.01-.018-.015-.03-.015s-.023.006-.03.015c-.018.019-.023.047-.01.07.049.052.122.071.19.05zm22.82 2.24a.77.77 0 0 0 .02-.15c0-.02-.01-.05-.03-.05-.022-.009-.048-.001-.06.02a.1.1 0 0 0 .01.14.21.21 0 0 1 .06.04zm-20.61-.82l.31.03v-.02a.59.59 0 0 1-.14-.06c-.029-.017-.064-.021-.096-.012s-.059.032-.074.062zm22.76-.16c.03.09.05.11.11.11s.06-.05.08-.09c-.07-.03-.07-.03-.19-.02zm-19.12-10.37a.2.2 0 0 0 .26.12.1.1 0 0 0-.01-.03l-.25-.09zm16.77-.64c-.067.118-.114.247-.14.38a.7.7 0 0 0 .14-.38zm1.72 9.92l-.15-.09c.02.08.01.17.12.2a.81.81 0 0 0 .03-.11zm-1.44 1.4c-.014.06.015.122.07.15.04.02.08-.01.12-.04l-.19-.11zm.06.98c-.01-.03-.01-.06-.02-.07-.009-.021-.028-.036-.05-.04-.02.004-.037.014-.05.03a.35.35 0 0 0-.03.12.66.66 0 0 0 .15-.04zm1.16-2.51c-.05 0-.08 0-.09.05s.01.06.04.08c.032.013.062.03.09.05l.01-.01a.37.37 0 0 0-.05-.17zm-4.66-8.41c-.01-.04-.04-.08-.06-.11-.019-.024-.05-.036-.08-.03s-.052.038-.05.07c.061.029.125.053.19.07zm5.69 9.75l.29.04v-.01l-.24-.11c-.021.024-.038.051-.05.08zm-21.97-2.67a1.79 1.79 0 0 0-.39.35c.141-.104.272-.221.39-.35zm-2.19 4.4a.49.49 0 0 0-.01-.17c-.052.037-.102.077-.15.12.055.012.108.029.16.05zm24.62-.9c-.02.02-.05.04-.06.06a.11.11 0 0 0 0 .08c.02.03.05.02.07 0 .028-.018.052-.042.07-.07-.02-.02-.04-.03-.05-.04s-.01-.02-.03-.03zm-2.67.62c.05.07.09.09.13.07s.03-.06.01-.13l-.14.06zm-21.91.41a2.51 2.51 0 0 1 .27.04c-.083-.059-.179-.096-.28-.11a.2.2 0 0 1 .01.07zm23.75.12c.023.065.057.126.1.18v-.21l-.1.03zm-26.54-1.56c0-.1-.08-.12-.13-.17-.021.022-.045.043-.07.06l.2.11zm27.41.9a2.73 2.73 0 0 0 .22.07c0-.01.01-.01.01-.02a1.85 1.85 0 0 1-.14-.14c-.025.035-.055.065-.09.09zm-26.04 2.47c-.06.01-.12.01-.16.07a.38.38 0 0 0 .19.03l-.03-.1zm1.78-3.02c.02.039.043.076.07.11.05-.022.079-.076.07-.13-.05-.01-.1-.03-.14.02zm21.08-.18c.01-.08.03-.14.04-.21l-.14.12c.03.03.06.05.1.09zm3.22.62c0-.01.01-.01.01-.02-.022-.021-.043-.045-.06-.07s-.05-.02-.07 0-.03.04-.02.05c.009.021.028.036.05.04.02.01.05 0 .09 0zm-.55-2.29c-.02-.02-.03-.02-.04-.03-.03-.01-.06-.03-.09 0s0 .06.01.08l.03.03c.033-.023.063-.05.09-.08zm-1.53 2.95h.02c.01-.03.01-.06.02-.1.006-.012.006-.026 0-.037s-.017-.02-.03-.023c-.02 0-.04-.01-.05 0-.03.02-.02.04-.01.07s.03.062.05.09zm-.28-1.45c-.01 0-.01.01-.02.01 0 .03.01.07.01.11.05.01.09.05.13-.01a1.2 1.2 0 0 0-.12-.11zm-22.97 1.21c-.01 0-.01.01-.02.01 0 .03.01.07.01.1 0 .01.01.04.02.04.019 0 .036-.007.05-.02.03-.03.03-.06 0-.08-.015-.022-.036-.039-.06-.05zm22.79-.32c.03-.01.05-.03.08-.04-.06-.04-.08-.12-.17-.06.03.03.06.07.09.1zm-22.3.07c.05.01.09.01.14.02v-.09c-.08-.03-.11.01-.14.07zm24.03-.27l.02.3c.04-.18.03-.24-.02-.3zm-24.97-3.29c-.035.05-.066.104-.09.16l.01.01c.045-.019.089-.043.13-.07a.46.46 0 0 1-.05-.1zm-.09 5.48a.12.12 0 0 0 .15.01.55.55 0 0 1-.07-.09c-.02.02-.04.03-.05.04s-.01.02-.03.04zm10.94-1.55c.09.07.18.07.22 0zm13.47-.27l.01.01.12-.14a.21.21 0 0 0-.04-.06l-.09.19zm1.66-1.54l.13-.08a.41.41 0 0 0-.11-.01c-.017-.001-.034.003-.05.01.02.02.02.04.03.08zm-11.51 1.47h-.02c-.033.08-.036.168-.01.25.019-.082.029-.166.03-.25zm10.97-.66c.01 0 .01-.01.02-.01-.03-.05-.05-.1-.08-.14s-.04-.01-.06.02a1.42 1.42 0 0 0 .12.13zm-26.88-1.43c.011.001.022-.002.03-.01-.01-.05-.01-.09-.02-.15-.03 0-.05.01-.07.01.02.06.04.1.06.15zm27.47 1.78c0-.01.01-.01.01-.02l-.12-.09v.09c.037.003.074.009.11.02zm-2.29.82c.05.01.07-.01.08-.04s-.02-.07-.06-.09a.69.69 0 0 1-.02.13zm-21.16-3.9a2.3 2.3 0 0 1 .19-.07c-.08-.04-.09-.04-.19.07zm-3.03.14c.09-.05.1-.07.06-.19-.02.06-.03.12-.06.19zm1.87 1.15a.44.44 0 0 0-.02.1c.06 0 .1-.05.08-.09-.02-.005-.04-.008-.06-.01zm21.22.97c.09.06.1.06.16-.04-.054.01-.108.023-.16.04zm-22.03 1.28v.02h.11a.28.28 0 0 1 .01-.08 1.34 1.34 0 0 0-.12.06zm-2.29-1.28v-.13l-.08.08a.35.35 0 0 1 .08.05zm26.91.18c-.01.07.02.1.05.11s.05 0 .05-.04l-.1-.07zm-2.2-.43c-.01 0-.01-.01-.02-.01l-.07.1h.09zm1.4-1.1c.05.01.08-.01.08-.04s-.02-.05-.06-.06a.44.44 0 0 1-.02.1zm1.09 1.75c.03.11.04.12.12.09zm-24.94 1.12c.05 0 .08.01.11.01v-.11a1 1 0 0 0-.11.1zm.17-3.19a.93.93 0 0 0-.1-.05l.02.13a.3.3 0 0 0 .08-.08zm24.59.37c.013-.048.03-.095.05-.14l-.01-.01a.46.46 0 0 0-.07.07c.001.029.011.057.03.08zm-24.21 2.43c.05-.01.06-.04.05-.07 0-.01-.03-.02-.04-.03-.011.011-.017.025-.02.04-.002.021.002.041.01.06zm22.21-.66c.03.01.04.02.05.01.038-.032.072-.069.1-.11l-.01-.01c-.04.03-.08.07-.14.11zm-1.55-5.41a.44.44 0 0 0-.07-.19.49.49 0 0 0 .07.19zm1.38 4.88c-.06 0-.09-.09-.16-.06.08.06.11.08.16.06zm2 1.65a.22.22 0 0 0-.05.06.57.57 0 0 0 .07.08l.01-.01c-.013-.042-.023-.086-.03-.13zm-2.1-2.48a.7.7 0 0 0-.06-.09c-.04.08-.03.09.06.09zm1.39 1.8c.03.03.04.05.06.07.02-.03.05-.05.04-.09-.033.01-.066.016-.1.02zm-25.37 2.38l-.06-.11v.15a.61.61 0 0 0 .06-.04zm26.02-1.91c.005-.035-.011-.07-.04-.09a.33.33 0 0 0-.03.06c.005.014.015.025.028.03s.028.006.042 0zm-26.49-2.38c.05-.03.07-.05.05-.1-.015-.009-.033-.013-.05-.01zm25.31 2.89h.02c.015-.034.031-.068.05-.1-.02-.005-.041-.012-.06-.02a.53.53 0 0 0-.01.12zm1.06-.38c.03.04.04.07.08.08.01-.07.01-.07-.08-.08zm.28-2.51c.08-.04.08-.04.04-.11l-.04.11zm-.31 2.59c.01-.05-.01-.07-.05-.09-.02.05 0 .07.05.09zm-25.93-3.14l-.13-.02c.03.03.04.05.06.07a.23.23 0 0 0 .07-.05zm26.79 2.44l.01-.08c-.03.001-.061-.002-.09-.01.04.04.06.07.08.09zm-2.11.9l.01.01a.7.7 0 0 0 .06-.09c-.019-.007-.04-.011-.06-.01.007.03.003.062-.01.09zm1.32-1.12c-.05.04-.05.06 0 .11zm-16.19.58c.03.01.05.03.08.04 0-.06 0-.06-.08-.04zm-7.37-1.86c.02.05.02.05.09.02-.03-.04-.06-.03-.09-.02zm-1.95 3.33c.03-.01.07.02.09-.02-.05-.04-.07-.02-.09.02zm2.45-2.17a.5.5 0 0 0-.08-.07c-.01.07-.01.07.08.07zm23.72-1.75l-.01-.01c-.022.019-.045.036-.07.05.02.02.03.02.05.04.002-.029.012-.057.03-.08zm-23.71 1.71c.02.03.03.05.04.05s.03 0 .04-.01c-.01-.01-.01-.03-.02-.04zm22.45.45l.04.08c.04-.05.04-.05-.04-.08zm-1.53.21c.07-.01.07-.01.04-.05a.1.1 0 0 0-.04.05zm.25-.1v-.02c-.03 0-.05.01-.06.05zm-24.3-2.31c-.05 0-.07.01-.07.06.03-.03.05-.04.07-.06zm24.06 2.21c.04.03.06.02.09-.02-.03.01-.05.01-.09.02zm3.1-1.16c-.03-.03-.05-.04-.08 0zm-20.08-10.44c-.03-.04-.05-.06-.08-.06.015.032.045.054.08.06zm-4.34 9.84c.001-.008.005-.015.01-.02-.02-.01-.04-.01-.06-.02 0 .01 0 .01-.01.02.018.011.039.018.06.02zm22.93-.86c.04-.02.04-.04.01-.06.001.02-.003.041-.01.06zm-2.65-13.02l-.01.01c.02.01.03.02.05.02-.01-.01-.02-.02-.04-.03zm2.29 12.98c.008-.001.015-.005.02-.01-.011-.011-.017-.025-.02-.04h-.01c.002.017.006.034.01.05z"/><path d="M33.833 17.179c.032-.009.062-.023.09-.04-.03.01-.06.03-.09.04z"/></svg>